<svg width="288" height="64" viewBox="0 0 288 64" fill="none" xmlns="http://www.w3.org/2000/svg">
<path fill-rule="evenodd" clip-rule="evenodd" d="M91 15.001C91 26.2564 91 37.7446 91 49H94.2593V34.096C94.2593 34.096 95.1541 34.1026 97.0529 35.2607C99.1958 36.5676 100.312 39.6852 100.312 42.0139C100.312 44.3426 100.312 49 100.312 49H103.571C103.571 49 103.571 43.8768 103.571 42.0139C103.571 40.1509 103.339 38.2877 102.228 36.7375C101.117 35.1874 98.6839 33.3977 96.1678 33.3977C94.8398 33.3977 94.2593 33.3977 94.2593 33.3977V31.069H96.1678C98.8255 31.069 101.219 29.4961 102.163 28.0701C103.106 26.6442 103.571 24.7813 103.571 21.987C103.571 19.1926 103.571 14.9252 103.571 15.001H100.312C100.312 15.001 100.312 18.4939 100.312 21.987C100.312 25.48 98.6364 28.1824 97.0529 29.2061C95.4694 30.2298 94.2593 30.3701 94.2593 30.3701L94.2593 15.0007L91 15.001ZM117.54 17.5626C115.444 19.6579 114.746 21.5214 114.746 22.9186C114.746 24.3158 114.746 49 114.746 49H118.005V37.822H124.524V49H127.783V15.001C127.783 15.001 127.317 15.001 124.524 15.001C121.73 15.001 118.832 16.2701 117.54 17.5626ZM138.958 15.001C138.958 15.001 138.958 38.9866 138.958 42.0139C138.958 45.0412 139.423 46.1574 140.587 47.1367C141.751 48.116 145.011 48.9997 150.365 48.9997C155.72 48.9997 158.746 48.0682 159.91 47.1367C161.074 46.2052 161.772 44.5755 161.772 42.0139V15.001H158.513C158.513 15.001 158.513 40.8492 158.513 42.0136C158.513 43.1779 158.376 44.5755 157.212 45.7398C156.048 46.9042 154.556 48.116 151.995 48.116V42.0139V15.001H148.735V42.0139V48.116C146.175 48.116 144.545 46.9039 143.381 45.7395C142.217 44.5752 142.217 42.0136 142.217 42.0136V15.0007L138.958 15.001ZM173.413 15.001C173.413 15.001 173.413 39.4526 173.413 42.0139C173.413 44.5752 173.878 46.2053 175.042 47.1368C176.206 48.0683 179 48.9997 184.122 48.9997V48.0683C181.794 48.0683 176.672 47.0793 176.672 42.0139V37.822H184.122V36.8905C181.638 36.8905 179.155 36.8905 176.672 36.8905V26.7782V15.9322H185.519V15.001L173.413 15.001ZM196.228 15.0006C196.228 26.3337 196.228 37.6667 196.228 48.9997H199.487V15.9483C203.212 15.9483 205.54 19.6581 205.54 21.0553V33.7475H208.799V21.0553C208.799 19.6581 210.429 15.9322 214.386 15.9322C214.386 26.9547 214.386 37.9772 214.386 48.9997H217.646V15.0006H214.386C211.132 15.0006 209.474 15.8615 207.169 18.028C204.841 15.8853 202.746 15.0006 199.487 15.0007L196.228 15.0006ZM229.751 48.999H233.011V42.1305L239.529 31.8842C239.529 31.8842 239.529 47.2654 239.529 48.999H242.834V15H239.529V30.487L233.011 40.7333L232.996 15H229.751V48.999ZM254.894 48.999H258.153V40.2675C260.016 40.2675 264.202 40.1027 266.089 37.0074C266.997 35.1444 267 32.6978 267 27.575C267 22.4521 266.953 19.8083 266.069 18.2602C264.206 15 260.016 15 258.153 15H254.894V48.999ZM124.542 36.8905H118.005C118.005 36.8905 118.005 24.0829 118.005 22.9186C118.005 21.7542 118.238 20.357 119.169 19.1927C120.101 18.0283 122.429 16.1653 124.524 16.1653C124.524 16.1653 124.507 34.057 124.542 36.8905ZM261.878 17.3287C263.741 18.7259 263.741 22.2193 263.741 27.575C263.741 32.9307 263.741 35.1444 261.878 37.2402C260.016 39.336 259.085 39.3364 258.153 39.3364V15.9315C259.085 15.9315 260.016 15.9315 261.878 17.3287Z" fill="#2B2E36"/>
<path d="M34.0019 1.0426C33.1209 0.721359 32.4 0.353373 32.4 0.224767C32.4 -0.190771 33.6724 -0.025421 35.9114 0.681642C43.9409 3.21675 48.9159 11.7601 47.1518 19.9842C45.9497 25.5878 41.9469 30.0442 36.7185 32.2353C36.697 32.4083 36.7593 32.069 36.7185 32.2353C37.9575 31.9837 39.7592 31.9813 40.5774 31.6308C44.4732 29.9617 47.507 27.0189 49.2681 23.2007C50.4996 20.5302 50.884 18.4055 50.7178 15.1844C50.4961 10.8826 48.9402 7.32458 45.9921 4.37799C45.2068 3.59311 44.5643 2.8928 44.5643 2.82174C44.5643 2.07415 47.6172 4.19831 49.3419 6.14605C51.8604 8.99024 53.4883 13.3607 53.4807 17.258C53.462 26.9705 45.3419 33.7332 36.0643 34.0574C35.9885 34.1768 36.1508 33.9462 36.0643 34.0574C36.7309 34.2004 37.707 34.6941 39.1579 34.7641C45.5042 35.0702 50.6048 32.4527 54.2162 27.0364C57.0029 22.8567 57.5122 16.7652 55.4956 11.7274C54.2003 8.49095 55.4213 9.32743 57.1162 12.8376C58.0923 14.8588 58.8911 18.1088 58.8911 20.0582C58.8911 23.0278 57.6817 26.8222 55.89 29.4729C53.9781 32.302 50.2077 35.1373 46.9958 36.1612C43.0264 37.4269 38.6959 36.8207 34.9173 35.277C34.7855 35.3726 35.0595 35.1961 34.9173 35.277C35.6241 35.7905 36.2878 36.7385 37.1306 37.1582C39.7978 38.4864 41.5697 38.8898 44.753 38.8936C49.2537 38.899 52.8379 37.4954 56.149 34.4315C59.4239 31.4009 61.3234 27.2328 61.4713 22.753C61.6097 18.5544 62.4266 19.9047 62.4931 24.4422C62.5393 27.5903 62.16 29.3603 60.8636 32.0456C58.8797 36.1556 55.4497 39.1675 51.0262 40.6843C49.0178 41.373 48.3933 41.4614 45.6455 41.446C42.9724 41.4308 42.2533 41.326 40.5128 40.697C37.634 39.6566 35.5082 37.923 33.1882 36.0333C33.0848 36.0539 33.2941 36.02 33.1882 36.0333C33.6312 36.8345 34.8627 38.8588 35.9374 39.9289C40.7625 44.7335 48.668 45.9048 55.0702 42.7636C58.7641 40.9513 61.7878 37.4403 63.636 32.8178C63.8398 32.3074 63.8582 32.3131 63.9628 32.9199C64.3018 34.8833 62.2787 39.1908 59.744 41.9023C57.5141 44.2877 54.8423 45.9056 51.7372 46.751C47.4645 47.9141 42.0449 47.0528 38.3864 44.629C35.0273 42.4036 33.364 39.4678 31.5361 36.0503C31.4724 36.039 31.5988 36.0644 31.5361 36.0503C31.2786 38.1431 32.4506 40.8031 33.4848 42.528C35.5835 46.0291 38.6614 48.5255 42.5472 49.8783C45.4644 50.8942 49.9112 50.9674 52.809 50.0475C55.284 49.2618 57.8407 47.7515 59.684 45.9858C60.5006 45.2037 61.2653 44.596 61.3834 44.6355C61.7927 44.7719 59.7358 47.4667 58.0777 48.9665C56.2312 50.6367 53.3855 52.1619 50.9276 52.799C48.8758 53.3307 44.8781 53.3355 42.7964 52.8087C38.1726 51.6391 33.8667 48.1727 31.8696 44.013C30.5587 41.2817 30.0923 38.4677 30.0311 35.4853C29.9414 35.4313 30.1165 35.5454 30.0311 35.4853C29.7261 36.2635 29.1565 38.321 29.1608 39.9467C29.1751 45.3485 31.4385 49.7446 36.1839 53.5874C38.4905 55.4551 43.6141 56.9019 46.9971 56.6409C49.1007 56.4786 52.4129 55.591 53.3415 54.941C53.974 54.4984 54.2957 54.4646 54.2957 54.8407C54.2957 55.3419 51.2222 57.0881 49.2246 57.7222C39.9218 60.6747 30.1091 55.3319 27.6886 45.9961C26.6955 42.1645 27.3353 38.0759 28.9044 34.5172C28.8215 34.4174 28.9785 34.6241 28.9044 34.5172C26.2641 37.6375 24.9719 41.4816 25.1677 45.499C25.4188 50.6548 27.4529 54.57 31.589 57.8581C34.2528 59.9755 37.1719 61.0108 41.1177 61.2375C45.9061 61.5126 44.3278 62.2783 39.0228 62.2537C36.4664 62.2421 35.746 62.1324 33.8867 61.4731C28.6485 59.6159 24.7611 55.5999 23.1481 50.3795C22.3815 47.8982 22.3315 43.5645 23.0421 41.1934C24.0155 37.9462 25.9931 35.5764 28.0911 33.0353C28.0589 32.9348 28.1161 33.1387 28.0911 33.0353C22.6469 36.1496 19.0931 42.055 19.5305 48.3531C19.7221 51.1101 20.0113 52.2138 21.1953 54.7024C22.7937 58.0616 25.5977 60.815 29.1575 62.5201C30.2634 63.0499 31.3239 63.4833 31.5139 63.4833C31.7039 63.4833 31.8594 63.6049 31.8594 63.7535C31.8594 64.1114 31.5031 64.0909 29.493 63.6173C24.8125 62.5141 20.5098 59.042 18.4462 54.7024C17.0151 51.6926 16.6291 49.7567 16.8035 46.4619C17.0416 41.9626 18.3724 38.9425 21.5535 35.6833C23.3899 33.8018 25.479 32.5371 27.8844 31.5144C27.8717 31.6258 27.8886 31.4005 27.8844 31.5144C25.8578 31.7793 24.0015 32.1432 22.1506 32.992C20.1151 33.9255 16.7313 37.1488 15.526 39.3021C11.6842 46.1663 12.7582 54.108 18.294 59.7683C19.9786 61.4907 19.8824 61.7425 18.0129 60.5048C15.6703 58.954 13.7827 56.7677 12.5365 54.162C11.0795 51.1155 10.7746 49.8273 10.7746 46.7191C10.7746 42.7582 11.9229 39.3964 14.3495 36.2518C17.6764 31.9407 22.9405 30.0109 28.2363 29.9412C28.1852 30.0396 28.2802 29.8387 28.2363 29.9412C25.8547 29.1906 23.0679 28.9266 20.6412 29.4308C19.7491 29.6161 18.1186 30.1811 17.0176 30.6866C11.8626 33.0531 8.4942 37.5294 7.5089 43.3232C6.97556 46.4586 7.53458 49.7651 9.29056 53.861C9.45275 54.2396 9.41112 54.3387 9.1281 54.2461C8.54286 54.0545 6.84959 50.9734 6.13974 48.8079C5.60694 47.1833 5.50693 46.3389 5.52531 43.625C5.5445 40.767 5.63668 40.1426 6.30463 38.3565C8.25173 33.1487 12.1397 29.4464 17.5325 27.6649C18.6014 27.312 19.8551 27.1726 21.9928 27.1688C24.497 27.1647 26.927 27.3898 29.1908 28.5363C29.2535 28.4741 29.0822 28.5733 29.1485 28.5149C25.5995 26.2026 21.6874 24.5041 17.3874 25.1019C8.91887 26.2791 2.66508 33.2576 2.66508 41.5303C2.66508 42.7566 2.55344 43.7601 2.4172 43.7601C2.03118 43.7601 1.58327 41.2358 1.58786 39.0862C1.593 36.566 2.17905 34.1349 3.39142 31.606C4.65083 28.9788 7.93492 25.5985 10.4654 24.3246C13.2195 22.9383 17.2406 22.1186 20.6412 22.8602C26.044 24.0386 30.4985 27.6362 30.4985 27.6362C30.4985 27.6362 25.7158 22.3074 19.3267 20.9109C13.3836 19.6119 5.93197 22.0437 2.70671 26.8635C1.97144 27.9621 1.16509 29.4778 0.914501 30.2316C0.663917 30.9851 0.347105 31.6019 0.210595 31.6019C-0.391672 31.6019 0.363054 28.6194 1.64652 25.9281C2.51451 24.1077 3.16814 23.2096 4.79842 21.5961C6.96204 19.4549 8.86589 18.288 11.8559 17.2716C14.482 16.3783 18.7679 16.4275 21.7435 17.3848C26.6765 18.9714 32.3293 27.2476 32.3293 27.2476C32.3293 27.2476 28.1727 17.035 23.1359 14.7324C17.0181 11.9355 9.67089 13.1586 4.75625 17.7922C3.74797 18.7432 2.84916 19.4476 2.75915 19.3576C2.45991 19.0585 4.31212 16.5067 5.88429 15.052C7.62378 13.4423 10.3734 11.8993 12.802 11.1701C15.3313 10.4103 19.7659 10.5192 22.475 11.4075C29.6333 13.7545 34.0416 27.5954 34.0416 27.5954C34.0416 27.5954 34.5438 22.7735 32.9505 18.0594C31.6612 14.2446 28.6609 10.5737 25.5761 9.00942C23.8617 8.13998 20.2098 7.28891 18.2083 7.29216C16.0893 7.29594 13.2667 7.90574 11.3863 8.76626C9.65305 9.55924 9.19324 9.42523 10.3691 8.4696C12.6714 6.5986 16.4372 5.3944 19.9854 5.3944C23.1557 5.3944 24.7311 5.73537 27.4532 7.01036C29.3532 7.90033 30.1523 8.48635 31.9691 10.3228C34.4882 12.869 35.28 15.9623 35.9114 19.3576C36.5428 22.753 35.611 28.7127 35.611 28.7127C35.611 28.7127 39.1579 22.3813 39.1579 19.3379C39.1579 15.6091 37.2179 10.8412 34.5336 7.97301C31.3971 4.62196 27.8124 2.98007 23.1416 2.75582C21.5435 2.67882 20.2357 2.51752 20.2357 2.39675C20.2357 1.58648 26.2457 1.33791 28.9821 2.03525C34.7301 3.4999 39.2801 7.86737 41.0264 13.5957C41.8127 16.176 41.8095 20.2992 41.0191 22.8602C40.1059 25.8194 36.5428 30.3317 36.5428 30.3317C36.5428 30.3317 39.6609 28.5891 40.5971 27.5265C42.1239 25.7936 43.5757 22.964 44.1899 20.5245C44.7832 18.1672 44.5789 13.4904 43.7844 11.2476C42.1276 6.57104 38.3456 2.62559 34.0019 1.0426Z" fill="url(#paint0_linear_2302_60631)"/>
<defs>
<linearGradient id="paint0_linear_2302_60631" x1="32" y1="0" x2="32" y2="64" gradientUnits="userSpaceOnUse">
<stop stop-color="#2D695D"/>
<stop offset="0.5" stop-color="#6B7DAD"/>
<stop offset="1" stop-color="#8D5396"/>
</linearGradient>
</defs>
</svg>
