<svg width="187" height="16" viewBox="0 0 187 16" fill="none" xmlns="http://www.w3.org/2000/svg"><mask id="a" fill="#fff"><path d="M8.827 15.943l-5.125-6.73h-.057v6.73H0V.143h3.616v6.36h.086L8.714.17h4.185L6.72 7.701l6.493 8.242m.882 0V.143h9.483l-.883 2.937H17.74v3.31h4.955v2.966H17.74v3.65h5.78v2.938m43.312-.001V7.872c0-.57 0-1.227.029-1.712h-.029c-.142.343-.797 1.284-1.053 1.683l-2.563 3.907h-1.595L58.66 7.7c-.342-.456-.712-.94-1.054-1.54h-.057c.029.542.029 1.141.029 1.598v8.185h-3.645V.143h3.303l3.958 5.533c.484.656.855 1.254 1.225 1.882h.057a27.56 27.56 0 0 1 1.139-1.997l3.53-5.39h3.332V16m12.558-.057l-1.509-3.765H76.4l-1.424 3.765H71.39L77.596.057h2.876l6.55 15.886h-3.987zm-3.474-9.184c-.256-.77-.484-1.454-.57-1.939h-.028c-.085.513-.313 1.198-.57 1.882l-.968 2.539h2.99m22.24-3.794c-.484.742-.854 1.426-1.168 1.997h-.057a26.04 26.04 0 0 0-1.224-1.883L96.276.03h-3.331v15.857h3.645V7.672c0-.428 0-1.055-.029-1.597h.057c.342.599.712 1.084 1.054 1.54l2.961 4.05h1.623l2.592-3.907c.256-.428.911-1.34 1.053-1.683h.029c-.029.485-.029 1.14-.029 1.711v8.1h3.645V.029h-3.332M116.693 0l-6.207 15.886h3.588l1.452-3.765h5.126l1.509 3.765h3.958L119.57 0h-2.877zm-.17 9.184l.968-2.539c.256-.684.484-1.369.569-1.91h.029c.085.513.313 1.169.569 1.939l.855 2.481M145.482 0l-6.008 15.401c-2.164-3.765-3.559-6.16-4.385-6.645v-.029c1.395-.656 2.819-2.053 2.819-4.078 0-2.481-1.538-4.62-5.895-4.62h-4.954v15.857h3.673v-5.96h1.111c.541.227 1.366 1.796 3.758 5.96h7.29l1.424-3.765h5.126l1.509 3.765h3.958L148.358 0h-2.876zm-13.383 7.301h-1.339V3.023h1.367c1.31 0 2.193.884 2.193 2.025 0 1.312-.94 2.253-2.221 2.253zm13.241 1.883l.968-2.539c.256-.684.484-1.369.57-1.91h.028c.086.513.313 1.169.57 1.939l.854 2.481M43.596 0l-6.008 15.401c-2.164-3.765-3.56-6.16-4.385-6.645v-.029c1.395-.656 2.819-2.053 2.819-4.078 0-2.481-1.538-4.62-5.895-4.62h-4.954v15.857h3.673v-5.96h1.11c.541.227 1.367 1.796 3.76 5.96h7.289l1.424-3.765h5.125l1.51 3.765h3.958L46.472 0h-2.876zM30.213 7.301h-1.339V3.023h1.367c1.31 0 2.193.884 2.193 2.025 0 1.312-.94 2.253-2.221 2.253zm13.24 1.883l.97-2.539c.255-.684.483-1.369.569-1.91h.028c.085.513.313 1.169.57 1.939l.854 2.481M155.477.029l.883 2.88 6.521-.057-7.945 13.034h13.498V12.92l-7.575.085L168.576.03m.57-.001l.854 2.88 6.549-.057-7.973 13.034h13.498V12.92l-7.575.085L182.216.03M187 .029h-3.673v15.857H187V.029z"/></mask><path d="M8.827 15.943l-5.125-6.73h-.057v6.73H0V.143h3.616v6.36h.086L8.714.17h4.185L6.72 7.701l6.493 8.242m.882 0V.143h9.483l-.883 2.937H17.74v3.31h4.955v2.966H17.74v3.65h5.78v2.938m43.312-.001V7.872c0-.57 0-1.227.029-1.712h-.029c-.142.343-.797 1.284-1.053 1.683l-2.563 3.907h-1.595L58.66 7.7c-.342-.456-.712-.94-1.054-1.54h-.057c.029.542.029 1.141.029 1.598v8.185h-3.645V.143h3.303l3.958 5.533c.484.656.855 1.254 1.225 1.882h.057a27.56 27.56 0 0 1 1.139-1.997l3.53-5.39h3.332V16m12.558-.057l-1.509-3.765H76.4l-1.424 3.765H71.39L77.596.057h2.876l6.55 15.886h-3.987zm-3.474-9.184c-.256-.77-.484-1.454-.57-1.939h-.028c-.085.513-.313 1.198-.57 1.882l-.968 2.539h2.99m22.24-3.794c-.484.742-.854 1.426-1.168 1.997h-.057a26.04 26.04 0 0 0-1.224-1.883L96.276.03h-3.331v15.857h3.645V7.672c0-.428 0-1.055-.029-1.597h.057c.342.599.712 1.084 1.054 1.54l2.961 4.05h1.623l2.592-3.907c.256-.428.911-1.34 1.053-1.683h.029c-.029.485-.029 1.14-.029 1.711v8.1h3.645V.029h-3.332M116.693 0l-6.207 15.886h3.588l1.452-3.765h5.126l1.509 3.765h3.958L119.57 0h-2.877zm-.17 9.184l.968-2.539c.256-.684.484-1.369.569-1.91h.029c.085.513.313 1.169.569 1.939l.855 2.481M145.482 0l-6.008 15.401c-2.164-3.765-3.559-6.16-4.385-6.645v-.029c1.395-.656 2.819-2.053 2.819-4.078 0-2.481-1.538-4.62-5.895-4.62h-4.954v15.857h3.673v-5.96h1.111c.541.227 1.366 1.796 3.758 5.96h7.29l1.424-3.765h5.126l1.509 3.765h3.958L148.358 0h-2.876zm-13.383 7.301h-1.339V3.023h1.367c1.31 0 2.193.884 2.193 2.025 0 1.312-.94 2.253-2.221 2.253zm13.241 1.883l.968-2.539c.256-.684.484-1.369.57-1.91h.028c.086.513.313 1.169.57 1.939l.854 2.481M43.596 0l-6.008 15.401c-2.164-3.765-3.56-6.16-4.385-6.645v-.029c1.395-.656 2.819-2.053 2.819-4.078 0-2.481-1.538-4.62-5.895-4.62h-4.954v15.857h3.673v-5.96h1.11c.541.227 1.367 1.796 3.76 5.96h7.289l1.424-3.765h5.125l1.51 3.765h3.958L46.472 0h-2.876zM30.213 7.301h-1.339V3.023h1.367c1.31 0 2.193.884 2.193 2.025 0 1.312-.94 2.253-2.221 2.253zm13.24 1.883l.97-2.539c.255-.684.483-1.369.569-1.91h.028c.085.513.313 1.169.57 1.939l.854 2.481M155.477.029l.883 2.88 6.521-.057-7.945 13.034h13.498V12.92l-7.575.085L168.576.03m.57-.001l.854 2.88 6.549-.057-7.973 13.034h13.498V12.92l-7.575.085L182.216.03M187 .029h-3.673v15.857H187V.029z" fill="#fff"/><path d="M3.702 9.212l.795-.606-.3-.394h-.495v1zm-.057 0v-1h-1v1h1zm0 6.731v1h1v-1h-1zm-3.645 0h-1v1h1v-1zm0-15.8v-1h-1v1h1zm3.616 0h1v-1h-1v1zm0 6.36h-1v1h1v-1zm.086 0v1h.484l.3-.38-.784-.62zM8.714.17v-1H8.23l-.3.38.784.62zm4.185 0l.774.635 1.34-1.635H12.9v1zM6.72 7.701l-.773-.635-.51.622.498.631.785-.618zM14.095.143v-1h-1v1h1zm9.483 0l.958.287.387-1.287h-1.345v1zm-.883 2.937v1h.744l.214-.712-.958-.288zm-4.955 0v-1h-1v1h1zm0 3.309h-1v1h1v-1zm4.955 0h1v-1h-1v1zm0 2.966v1h1v-1h-1zm-4.955 0v-1h-1v1h1zm0 3.65h-1v1h1v-1zm5.78 0h1v-1h-1v1zM66.862 6.16l.998.06.062-1.06h-1.06v1zm-.029 0v-1h-.667l-.256.616.923.384zM65.78 7.843l.836.549.006-.009-.842-.54zm-2.563 3.907v1h.54l.296-.451-.836-.549zm-1.595 0l-.807.59.3.41h.507v-1zM58.66 7.7l.807-.59-.007-.009-.8.6zm-1.054-1.54l.869-.495-.288-.505h-.58v1zm-.057 0v-1h-1.053l.055 1.053.998-.053zm.029 9.783v1h1v-1h-1zm-3.645 0h-1v1h1v-1zm0-15.8v-1h-1v1h1zm3.303 0l.814-.582-.3-.418h-.514v1zm3.958 5.533l-.813.581.004.006.005.006.804-.593zm1.225 1.882l-.861.508.29.492h.57v-1zm.057 0v1h.618l.276-.553-.894-.447zm1.139-1.997l-.837-.547-.008.012-.007.012.852.523zm3.53-5.39v-1h-.54l-.296.452.837.548zm3.332 0h1v-1h-1v1zm12.558 15.772l-.928.372.252.628h.676v-1zm-1.509-3.765l.928-.372-.252-.628h-.676v1zm-5.126 0v-1h-.69l-.245.646.935.354zm-1.424 3.765v1h.692l.244-.646-.936-.354zm-3.587 0l-.932-.364-.533 1.364h1.465v-1zM77.596.057v-1h-.683l-.248.636.931.364zm2.876 0l.925-.381-.255-.619h-.67v1zm6.55 15.886v1h1.494l-.57-1.381-.924.381zM78.992 4.82l.984-.174-.145-.826h-.84v1zm-.029 0v-1h-.847l-.14.836.987.164zm-.57 1.882l.935.357.002-.006-.936-.35zm-.968 2.539l-.934-.357-.517 1.357h1.451v-1zm24.062-1.797v1h.592l.285-.519-.877-.481zm-.057 0l-.861.508.29.492h.571v-1zm-1.224-1.883l.816-.577-.001-.002-.815.58zM96.276.03l.816-.58-.3-.42h-.516v1zm-3.331 0v-1h-1v1h1zm0 15.857h-1v1h1v-1zm3.645 0v1h1v-1h-1zm-.029-9.811v-1h-1.054l.055 1.052 1-.052zm.057 0l.869-.496-.288-.504h-.58v1zm1.054 1.54l.807-.59-.007-.01-.8.6zm2.961 4.05l-.807.59.3.41h.507v-1zm1.623 0v1h.537l.297-.447-.834-.553zm2.592-3.907l.833.552.013-.019.011-.02-.857-.513zm1.053-1.683v-1h-.667l-.256.616.923.384zm.029 0l.998.058.062-1.058h-1.06v1zm-.029 9.81h-1v1h1v-1zm3.645 0v1h1v-1h-1zm0-15.856h1v-1h-1v1zm7.147-.03v-1h-.682l-.249.636.931.364zm-6.207 15.886l-.932-.364-.533 1.364h1.465v-1zm3.588 0v1h.686l.247-.64-.933-.36zm1.452-3.765v-1h-.686l-.247.64.933.36zm5.126 0l.928-.372-.252-.628h-.676v1zm1.509 3.765l-.928.372.251.628h.677v-1zm3.958 0v1h1.494l-.57-1.381-.924.38zM119.57 0l.924-.381-.255-.619h-.669v1zm-2.079 6.645l.934.357.002-.006-.936-.35zm.569-1.91v-1h-.854l-.134.844.988.155zm.029 0l.986-.165-.139-.836h-.847v1zm.569 1.939l-.949.316.004.01.945-.326zM145.482 0v-1h-.683l-.248.637.931.363zm-6.008 15.401l-.867.498 1.04 1.81.759-1.944-.932-.364zm-4.385-6.645h-1v.572l.493.29.507-.862zm0-.029l-.426-.905-.574.27v.635h1zM127.059.03v-1h-1v1h1zm0 15.857h-1v1h1v-1zm3.673 0v1h1v-1h-1zm0-5.96v-1h-1v1h1zm1.111 0l.388-.922-.186-.079h-.202v1zm3.758 5.96l-.867.498.289.502h.578v-1zm7.29 0v1h.691l.244-.646-.935-.354zm1.424-3.765v-1h-.691l-.244.646.935.354zm5.126 0l.928-.372-.252-.628h-.676v1zm1.509 3.765l-.928.372.251.628h.677v-1zm3.958 0v1h1.494l-.57-1.381-.924.38zM148.358 0l.925-.381-.255-.619h-.67v1zM130.76 7.301h-1v1h1v-1zm0-4.278v-1h-1v1h1zm15.548 3.622l.935.357.002-.006-.937-.35zm.57-1.91v-1h-.855l-.133.844.988.155zm.028 0l.987-.165-.139-.836h-.848v1zm.57 1.939l-.949.316.003.01.946-.326zM43.596 0v-1h-.683l-.248.637.931.363zm-6.008 15.401l-.867.498 1.04 1.81.759-1.944-.932-.364zm-4.385-6.645h-1v.572l.493.29.507-.862zm0-.029l-.426-.905-.574.27v.635h1zM25.173.03v-1h-1v1h1zm0 15.857h-1v1h1v-1zm3.673 0v1h1v-1h-1zm0-5.96v-1h-1v1h1zm1.11 0l.389-.922-.186-.079h-.203v1zm3.76 5.96l-.868.498.288.502h.58v-1zm7.289 0v1h.691l.244-.646-.935-.354zm1.424-3.765v-1h-.691l-.245.646.936.354zm5.125 0l.929-.372-.252-.628h-.677v1zm1.51 3.765l-.928.372.251.628h.677v-1zm3.958 0v1h1.494l-.57-1.381-.924.38zM46.472 0l.925-.381L47.142-1h-.67v1zM28.874 7.301h-1v1h1v-1zm0-4.278v-1h-1v1h1zm3.56 2.025h-1 1zm11.988 1.597l.934.357.003-.006-.937-.35zm.57-1.91v-1h-.855l-.133.844.988.155zm.028 0l.986-.165-.139-.836h-.847v1zm.57 1.939l-.95.316.004.01.946-.326zm110.77-3.765l-.956.293.219.714.746-.007-.009-1zm6.521-.057l.854.52.936-1.536-1.799.016.009 1zm-7.945 13.034l-.854-.52-.926 1.52h1.78v-1zm13.498 0v1h1v-1h-1zm0-2.966h1v-1.012l-1.011.012.011 1zm-7.575.085l-.859-.51-.911 1.53 1.782-.02-.012-1zM170 2.91l-.959.284.214.723.754-.007-.009-1zm6.549-.057l.853.522.941-1.538-1.802.016.008 1zm-7.973 13.034l-.853-.522-.931 1.522h1.784v-1zm13.498 0v1h1v-1h-1zm0-2.966h1v-1.012l-1.012.012.012 1zm-7.575.085l-.859-.51-.911 1.53 1.781-.02-.011-1zM183.327.03v-1h-1v1h1zm3.673 0h1v-1h-1v1zm0 15.857v1h1v-1h-1zm-3.673 0h-1v1h1v-1zm-173.704-.55l-5.126-6.73-1.59 1.211 5.125 6.73 1.591-1.21zM3.702 8.212h-.057v2h.057v-2zm-1.057 1v6.731h2v-6.73h-2zm1 5.731H0v2h3.645v-2zm-2.645 1V.143h-2v15.8h2zm-1-14.8h3.616v-2H0v2zm2.616-1v6.36h2V.143h-2zm1 7.36h.086v-2h-.086v2zm.87-.38L9.498.792 7.929-.45 2.918 5.882l1.568 1.241zm4.228-5.952h4.185v-2H8.715v2zm3.412-1.634l-6.179 7.53 1.546 1.268 6.18-7.53-1.546-1.268zm-6.19 8.782l6.492 8.243 1.571-1.238-6.492-8.242-1.571 1.237zm9.16 7.624V.143h-2v15.8h2zm-1-14.8h9.483v-2h-9.482v2zM22.62-.145l-.883 2.937 1.916.576.883-2.938-1.916-.575zm.075 2.225H17.74v2h4.955v-2zm-5.955 1v3.31h2V3.08h-2zm1 4.309h4.955v-2H17.74v2zm3.955-1v2.966h2V6.389h-2zm1 1.966H17.74v2h4.955v-2zm-5.955 1v3.65h2v-3.65h-2zm1 4.65h5.78v-2h-5.78v2zm4.78-1v2.938h2v-2.938h-2zm45.313 2.938V7.872h-2v8.071h2zm0-8.071c0-.581 0-1.204.026-1.653l-1.996-.117c-.03.52-.03 1.21-.03 1.77h2zM66.86 5.16h-.029v2h.029v-2zm-.952.616c0-.001-.007.018-.032.063a4.23 4.23 0 0 1-.091.159 12.86 12.86 0 0 1-.276.437c-.185.284-.453.682-.573.868l1.684 1.08c.136-.213.324-.485.565-.857.196-.3.456-.707.57-.981l-1.847-.769zm-.966 1.519l-2.563 3.907 1.672 1.097 2.563-3.907-1.672-1.097zm-1.727 3.455H61.62v2h1.595v-2zm-.787.41l-2.962-4.05-1.614 1.18 2.961 4.05 1.615-1.18zM59.46 7.101c-.349-.466-.68-.9-.985-1.436l-1.737.991c.378.663.787 1.198 1.121 1.644l1.601-1.2zm-1.854-1.94h-.057v2h.057v-2zm-1.055 1.052c.027.511.027 1.084.027 1.545h2c0-.452 0-1.077-.03-1.65l-1.997.105zm.027 1.545v8.185h2V7.758h-2zm1 7.185h-3.645v2h3.645v-2zm-2.645 1V.143h-2v15.8h2zm-1-14.8h3.303v-2h-3.303v2zm2.49-.419l3.958 5.533 1.627-1.163L58.049-.44 56.424.724zM60.39 6.27c.454.616.805 1.182 1.167 1.797L63.28 7.05a21.997 21.997 0 0 0-1.281-1.968l-1.61 1.187zm2.029 2.289h.057v-2h-.057v2zm.951-.553a26.63 26.63 0 0 1 1.097-1.92l-1.704-1.047a28.5 28.5 0 0 0-1.182 2.073l1.79.894zm1.081-1.896L67.982.72 66.31-.377l-3.53 5.39 1.67 1.097zm2.695-4.938h3.331v-2h-3.331v2zm2.331-1V16h2V.171h-2zm14.486 15.4l-1.509-3.765-1.856.744 1.509 3.765 1.856-.744zm-2.437-4.393H76.4v2h5.126v-2zm-6.061.646l-1.424 3.765 1.87.708 1.425-3.765-1.871-.707zm-.489 3.119H71.39v2h3.588v-2zm-2.656 1.364L78.528.42l-1.863-.728-6.208 15.886 1.863.728zm5.276-15.25h2.876v-2h-2.876v2zm1.952-.619l6.55 15.886 1.848-.762-6.55-15.886-1.848.762zm7.474 14.505h-3.987v2h3.987v-2zm-6.512-8.5c-.267-.802-.464-1.402-.534-1.797l-1.97.347c.102.576.36 1.345.606 2.082l1.898-.631zM78.992 3.82h-.029v2h.029v-2zm-1.015.836c-.068.408-.264 1.012-.52 1.696l1.873.701c.257-.685.517-1.45.62-2.069l-1.973-.328zm-.518 1.69l-.968 2.538 1.869.713.968-2.538-1.869-.713zm-.034 3.895h2.99v-2h-2.99v2zm24.393-5.34c-.509.779-.897 1.498-1.207 2.062l1.753.962c.317-.577.669-1.227 1.128-1.93L101.818 4.9zm-.331 1.543h-.057v2h.057v-2zm.805.492a26.978 26.978 0 0 0-1.27-1.952L99.39 6.14c.47.664.824 1.212 1.179 1.813l1.723-1.016zm-1.271-1.954L97.091-.55 95.462.608l3.93 5.533 1.63-1.159zM96.276-.97h-3.331v2h3.331v-2zm-4.331 1v15.857h2V.029h-2zm1 16.857h3.645v-2h-3.645v2zm4.645-1V7.672h-2v8.214h2zm0-8.214c0-.423 0-1.077-.03-1.65l-1.998.105c.027.511.028 1.112.028 1.545h2zm-1.029-.597h.057v-2h-.057v2zm-.812-.505c.379.663.788 1.198 1.122 1.644l1.601-1.198c-.35-.467-.68-.901-.985-1.437l-1.737.991zm1.116 1.635l2.961 4.05 1.614-1.18-2.961-4.05-1.614 1.18zm3.768 4.46h1.623v-2h-1.623v2zm2.457-.447l2.591-3.908-1.667-1.105-2.591 3.907 1.667 1.106zm2.615-3.947c.114-.19.317-.487.547-.837.192-.291.456-.696.572-.975l-1.846-.768-.03.057c-.022.04-.052.092-.09.154a15.67 15.67 0 0 1-.276.432c-.197.299-.45.672-.592.91l1.715 1.027zm.196-1.196h.029v-2h-.029v2zm-.97-1.059c-.03.52-.03 1.21-.03 1.77h2c0-.58.001-1.203.027-1.652l-1.997-.118zm-.03 1.77v8.1h2v-8.1h-2zm1 9.1h3.645v-2h-3.645v2zm4.645-1V.029h-2v15.857h2zm-1-16.857h-3.332v2h3.332v-2zm6.216.607l-6.208 15.886 1.863.728L117.625.364l-1.863-.728zm-5.276 17.25h3.588v-2h-3.588v2zm4.521-.64l1.452-3.765-1.866-.72-1.452 3.765 1.866.72zm.519-3.125h5.126v-2h-5.126v2zm4.197-.628l1.51 3.765 1.856-.744-1.509-3.765-1.857.744zm2.438 4.393h3.958v-2h-3.958v2zm4.882-1.381L120.494-.381l-1.849.762 6.549 15.886 1.849-.762zM119.57-1h-2.877v2h2.877v-2zm-2.113 10.54l.968-2.538-1.869-.713-.968 2.538 1.869.713zm.97-2.544c.257-.686.518-1.454.621-2.106l-1.976-.311c-.068.432-.262 1.033-.518 1.716l1.873.7zm-.367-1.262h.029v-2h-.029v2zm-.958-.835c.102.611.366 1.365.607 2.09l1.898-.631c-.271-.815-.463-1.373-.532-1.788l-1.973.329zm.611 2.1l.854 2.482 1.891-.651-.854-2.482-1.891.651zm26.838-7.362l-6.009 15.4 1.864.727 6.008-15.4-1.863-.727zm-4.21 15.266c-1.078-1.876-1.981-3.439-2.719-4.593a17.484 17.484 0 0 0-1.023-1.465c-.295-.37-.631-.733-1.004-.952l-1.013 1.725c.041.024.188.142.455.475.249.312.546.741.9 1.294.707 1.106 1.584 2.624 2.67 4.512l1.734-.996zm-4.252-6.147v-.029h-2v.029h2zm-.575.876c1.603-.753 3.394-2.434 3.394-4.983h-2c0 1.5-1.057 2.615-2.245 3.173l.851 1.81zm3.394-4.983c0-1.45-.455-2.902-1.641-3.98-1.174-1.068-2.923-1.64-5.254-1.64v2c2.027 0 3.225.497 3.909 1.119.671.611.986 1.468.986 2.5h2zm-6.895-5.62h-4.954v2h4.954v-2zm-5.954 1v15.857h2V.029h-2zm1 16.857h3.673v-2h-3.673v2zm4.673-1v-5.96h-2v5.96h2zm-1-4.96h1.111v-2h-1.111v2zm.722-.08c-.117-.049-.097-.09.08.137.153.196.357.503.64.967.564.926 1.355 2.336 2.56 4.434l1.734-.996c-1.186-2.066-2.004-3.523-2.586-4.479a12.688 12.688 0 0 0-.772-1.158c-.205-.261-.491-.584-.879-.747l-.777 1.843zm4.147 6.04h7.29v-2h-7.29v2zm8.225-.646l1.424-3.765-1.87-.707-1.424 3.764 1.87.708zm.489-3.119h5.126v-2h-5.126v2zm4.197-.628l1.51 3.765 1.856-.744-1.509-3.765-1.857.744zm2.438 4.393h3.958v-2h-3.958v2zm4.882-1.381L149.283-.381l-1.849.762 6.549 15.886 1.849-.762zM148.358-1h-2.876v2h2.876v-2zm-16.259 7.301h-1.339v2h1.339v-2zm-.339 1V3.023h-2v4.278h2zm-1-3.278h1.367v-2h-1.367v2zm1.367 0c.811 0 1.193.488 1.193 1.025h2c0-1.745-1.384-3.025-3.193-3.025v2zm1.193 1.025c0 .77-.502 1.253-1.221 1.253v2c1.843 0 3.221-1.399 3.221-3.253h-2zm12.954 4.492l.969-2.538-1.869-.713-.968 2.538 1.868.713zm.971-2.544c.257-.686.518-1.454.621-2.106l-1.976-.311c-.068.432-.263 1.033-.518 1.716l1.873.7zm-.367-1.262h.028v-2h-.028v2zm-.958-.835c.102.611.365 1.365.607 2.09l1.898-.631c-.272-.815-.463-1.373-.532-1.788l-1.973.329zm.61 2.1l.854 2.482 1.892-.651-.855-2.482L146.53 7zM42.665-.363l-6.009 15.4 1.864.727 6.008-15.4-1.863-.727zm-4.21 15.266c-1.078-1.876-1.981-3.439-2.72-4.593a17.632 17.632 0 0 0-1.022-1.465c-.295-.37-.631-.733-1.004-.952l-1.013 1.725c.04.024.188.142.455.475.248.312.546.741.9 1.294.707 1.106 1.584 2.624 2.67 4.512l1.734-.996zm-4.252-6.147v-.029h-2v.029h2zm-.575.876c1.603-.753 3.394-2.434 3.394-4.983h-2c0 1.5-1.057 2.615-2.245 3.173l.851 1.81zm3.394-4.983c0-1.45-.455-2.902-1.64-3.98-1.175-1.068-2.924-1.64-5.255-1.64v2c2.027 0 3.225.497 3.909 1.119.671.611.986 1.468.986 2.5h2zm-6.895-5.62h-4.954v2h4.954v-2zm-5.954 1v15.857h2V.029h-2zm1 16.857h3.673v-2h-3.674v2zm4.673-1v-5.96h-2v5.96h2zm-1-4.96h1.11v-2h-1.11v2zm.722-.08c-.117-.049-.098-.09.08.137.153.196.357.503.64.967.564.926 1.355 2.336 2.56 4.434l1.734-.996c-1.186-2.066-2.004-3.523-2.586-4.479-.29-.477-.544-.866-.772-1.158-.205-.261-.491-.584-.879-.747l-.777 1.843zm4.147 6.04h7.29v-2h-7.29v2zm8.225-.646l1.424-3.765-1.87-.707-1.424 3.764 1.87.708zm.489-3.119h5.125v-2H42.43v2zm4.197-.628l1.51 3.765 1.856-.744-1.51-3.765-1.856.744zm2.438 4.393h3.958v-2h-3.958v2zm4.882-1.381L47.396-.381 45.549.38l6.55 15.886 1.848-.762zM46.472-1h-2.876v2h2.876v-2zm-16.26 7.301h-1.338v2h1.339v-2zm-.338 1V3.023h-2v4.278h2zm-1-3.278h1.367v-2h-1.367v2zm1.367 0c.81 0 1.193.488 1.193 1.025h2c0-1.745-1.384-3.025-3.193-3.025v2zm1.193 1.025c0 .77-.502 1.253-1.221 1.253v2c1.843 0 3.22-1.399 3.22-3.253h-2zM44.388 9.54l.968-2.538-1.868-.713-.968 2.538 1.868.713zm.97-2.544c.258-.686.519-1.454.621-2.106l-1.975-.311c-.068.432-.263 1.033-.518 1.716l1.873.7zm-.366-1.262h.028v-2h-.028v2zm-.958-.835c.102.611.365 1.365.607 2.09l1.897-.631c-.27-.815-.462-1.373-.531-1.788l-1.973.329zm.61 2.1l.854 2.482 1.891-.651-.854-2.482-1.89.651zM154.521.322l.883 2.88 1.912-.586-.883-2.88-1.912.586zm1.848 3.587l6.521-.057-.018-2-6.521.057.018 2zm5.658-1.577l-7.945 13.033 1.708 1.041 7.945-13.033-1.708-1.041zm-7.091 14.554h13.498v-2h-13.498v2zm14.498-1V12.92h-2v2.966h2zm-1.011-3.966l-7.575.085.023 2 7.574-.085-.022-2zm-6.704 1.597L169.436.54l-1.719-1.023L160 12.494l1.719 1.023zM168.187.313l.854 2.88 1.918-.568-.855-2.88-1.917.568zm1.822 3.596l6.549-.057-.017-2-6.55.057.018 2zm5.687-1.579l-7.973 13.034 1.706 1.044 7.973-13.034-1.706-1.044zm-7.12 14.556h13.498v-2h-13.498v2zm14.498-1V12.92h-2v2.966h2zm-1.012-3.966l-7.574.085.022 2 7.575-.085-.023-2zm-6.703 1.597L183.076.54l-1.719-1.023-7.717 12.977 1.719 1.023zm7.968-12.488H187v-2h-3.673v2zm2.673-1v15.857h2V.029h-2zm1 14.857h-3.673v2H187v-2zm-2.673 1V.029h-2v15.857h2z" fill="#fff" mask="url(#a)"/></svg>