<svg xmlns="http://www.w3.org/2000/svg" width="568" height="75" viewBox="0 0 568 75" fill="none">
	<g clip-path="url(#clip0_1_2)">
		<path fill-rule="evenodd" clip-rule="evenodd" d="M555.86 36.34C556.606 37.3546 557.008 38.5808 557.008 39.84C557.008 41.0992 556.606 42.3254 555.86 43.34C555.439 43.7815 554.926 44.1251 554.357 44.3463C553.789 44.5675 553.179 44.6609 552.57 44.62H536.75V35.09H552.57C553.176 35.0459 553.785 35.135 554.353 35.3509C554.922 35.5668 555.436 35.9044 555.86 36.34ZM554.36 20.92C555.038 21.7421 555.409 22.7745 555.409 23.84C555.409 24.9055 555.038 25.9379 554.36 26.76C553.984 27.1081 553.54 27.3762 553.057 27.548C552.575 27.7199 552.062 27.792 551.55 27.76H536.75V19.87H551.55C552.065 19.8452 552.58 19.9255 553.063 20.106C553.546 20.2865 553.987 20.5635 554.36 20.92ZM527.08 51.32C527.318 51.5668 527.604 51.7624 527.921 51.8948C528.237 52.0272 528.577 52.0936 528.92 52.09H552.74C556.46 52.2206 560.121 51.1359 563.17 49C564.554 48.0039 565.667 46.6784 566.409 45.1435C567.151 43.6087 567.498 41.913 567.42 40.21C567.527 38.3249 567.079 36.4498 566.132 34.8165C565.185 33.1832 563.779 31.8633 562.09 31.02C563.24 30.175 564.177 29.0733 564.826 27.8025C565.475 26.5318 565.819 25.127 565.83 23.7C565.904 21.3271 565.131 19.0053 563.65 17.15C562.269 15.4423 560.431 14.1625 558.35 13.46C556.116 12.7363 553.778 12.3816 551.43 12.41H528.91C528.567 12.4034 528.226 12.4684 527.909 12.601C527.592 12.7336 527.306 12.9308 527.07 13.18C526.825 13.4187 526.63 13.705 526.5 14.0214C526.369 14.3379 526.305 14.6777 526.31 15.02V49.5C526.31 49.8395 526.378 50.1756 526.51 50.4883C526.642 50.801 526.836 51.0838 527.08 51.32ZM498.35 52.93C505.65 52.93 511.19 51.2633 514.97 47.93C518.75 44.5967 520.64 39.35 520.64 32.19C520.64 25.01 518.75 19.7633 514.97 16.45C511.19 13.1367 505.65 11.47 498.35 11.45C491.017 11.45 485.477 13.1167 481.73 16.45C477.983 19.7833 476.093 25.03 476.06 32.19C476.06 39.37 477.95 44.6167 481.73 47.93C485.51 51.2433 491.05 52.91 498.35 52.93ZM510.2 32.23C510.2 36.62 509.26 39.91 507.39 42.13C505.52 44.35 502.5 45.45 498.39 45.45C494.28 45.45 491.22 44.34 489.34 42.13C487.46 39.92 486.53 36.62 486.53 32.23C486.53 27.84 487.47 24.54 489.34 22.33C491.21 20.12 494.18 19 498.34 19C502.5 19 505.52 20.11 507.34 22.32C509.16 24.53 510.2 27.85 510.2 32.23ZM460.72 51.35C460.962 51.5895 461.249 51.7783 461.565 51.9054C461.881 52.0325 462.219 52.0952 462.56 52.09H467.72C468.067 52.0925 468.411 52.0257 468.733 51.8935C469.054 51.7613 469.345 51.5663 469.59 51.32C469.844 51.0862 470.045 50.8015 470.182 50.4844C470.318 50.1673 470.385 49.825 470.38 49.48V15C470.384 14.657 470.318 14.3167 470.186 14.0002C470.053 13.6838 469.857 13.3978 469.61 13.16C469.363 12.9086 469.067 12.7106 468.74 12.5782C468.413 12.4457 468.063 12.3817 467.71 12.39H462.55C462.207 12.3834 461.866 12.4484 461.549 12.581C461.232 12.7136 460.946 12.9108 460.71 13.16C460.463 13.3982 460.268 13.6842 460.135 14.0006C460.003 14.317 459.936 14.657 459.94 15V27.48H440.94V15C440.935 14.3094 440.658 13.6486 440.17 13.1602C439.681 12.6719 439.021 12.3952 438.33 12.39H433.17C432.82 12.3793 432.471 12.4388 432.144 12.5649C431.817 12.6911 431.518 12.8813 431.266 13.1245C431.013 13.3676 430.812 13.6588 430.673 13.9809C430.535 14.303 430.462 14.6495 430.46 15V49.48C430.457 49.8257 430.526 50.1682 430.664 50.4853C430.802 50.8023 431.005 51.0867 431.26 51.32C431.505 51.5663 431.796 51.7613 432.117 51.8935C432.438 52.0257 432.783 52.0925 433.13 52.09H438.29C438.63 52.0952 438.969 52.0325 439.285 51.9054C439.6 51.7783 439.888 51.5895 440.13 51.35C440.379 51.1175 440.576 50.8353 440.708 50.5218C440.841 50.2083 440.906 49.8704 440.9 49.53V35.29H460V49.53C459.985 49.8669 460.042 50.2031 460.166 50.5167C460.29 50.8303 460.479 51.1143 460.72 51.35ZM399.55 21.71C400.888 20.7036 402.526 20.1754 404.2 20.21H412.08V34.67H394.44L396.88 25.77C397.283 24.1528 398.225 22.7209 399.55 21.71ZM380.16 51.35C380.357 51.5929 380.607 51.7863 380.892 51.9148C381.177 52.0433 381.488 52.1033 381.8 52.09H387.25C387.98 52.0707 388.683 51.8106 389.25 51.35C389.87 50.8894 390.311 50.2288 390.5 49.48L392.37 42.48H412.05V49.48C412.039 49.8258 412.099 50.1701 412.226 50.4918C412.353 50.8135 412.545 51.1057 412.79 51.3503C413.034 51.5949 413.327 51.7868 413.648 51.914C413.97 52.0412 414.314 52.1011 414.66 52.09H419.88C420.221 52.0952 420.559 52.0325 420.875 51.9054C421.191 51.7783 421.478 51.5895 421.72 51.35C421.969 51.1175 422.166 50.8353 422.298 50.5218C422.431 50.2083 422.496 49.8704 422.49 49.53V14.93C422.496 14.2691 422.254 13.63 421.81 13.14C421.601 12.8938 421.341 12.697 421.047 12.5639C420.753 12.4307 420.433 12.3645 420.11 12.37H405.23C394.87 12.37 388.747 15.9633 386.86 23.15L379.86 49.52C379.759 49.8266 379.733 50.1532 379.785 50.4719C379.837 50.7906 379.966 51.0919 380.16 51.35ZM365.92 36.35C366.725 37.3281 367.129 38.5755 367.05 39.84C367.119 41.1032 366.717 42.3471 365.92 43.33C365.498 43.7704 364.985 44.1132 364.417 44.3344C363.848 44.5555 363.239 44.6496 362.63 44.61H346.81V35.08H362.63C363.237 35.0365 363.846 35.1268 364.415 35.3445C364.983 35.5622 365.497 35.9021 365.92 36.34V36.35ZM364.42 20.93C365.098 21.7521 365.469 22.7845 365.469 23.85C365.469 24.9155 365.098 25.9479 364.42 26.77C364.043 27.1176 363.6 27.3854 363.117 27.5572C362.634 27.7291 362.122 27.8014 361.61 27.77H346.81V19.87H361.61C362.125 19.8452 362.64 19.9255 363.123 20.106C363.606 20.2865 364.047 20.5635 364.42 20.92V20.93ZM337.14 51.33C337.378 51.5768 337.664 51.7724 337.981 51.9048C338.297 52.0372 338.637 52.1036 338.98 52.1H362.8C366.524 52.2255 370.188 51.1375 373.24 49C374.624 48.0039 375.737 46.6784 376.479 45.1435C377.221 43.6087 377.568 41.913 377.49 40.21C377.597 38.3249 377.149 36.4498 376.202 34.8165C375.255 33.1832 373.849 31.8633 372.16 31.02C373.31 30.175 374.247 29.0733 374.896 27.8025C375.545 26.5318 375.889 25.127 375.9 23.7C375.974 21.3271 375.201 19.0053 373.72 17.15C372.339 15.4423 370.501 14.1625 368.42 13.46C366.186 12.7363 363.848 12.3816 361.5 12.41H339C338.657 12.4034 338.316 12.4684 337.999 12.601C337.682 12.7336 337.396 12.9308 337.16 13.18C336.913 13.4182 336.718 13.7042 336.585 14.0206C336.453 14.337 336.386 14.677 336.39 15.02V49.5C336.387 49.8381 336.452 50.1733 336.581 50.4859C336.71 50.7985 336.9 51.0821 337.14 51.32V51.33ZM327.67 51.33C327.917 51.0922 328.113 50.8062 328.246 50.4898C328.378 50.1733 328.444 49.833 328.44 49.49V15C328.445 14.6595 328.383 14.3214 328.255 14.0054C328.128 13.6895 327.94 13.4021 327.7 13.16C327.469 12.9126 327.188 12.7163 326.876 12.5837C326.565 12.4511 326.229 12.3851 325.89 12.39H317.72C316.967 12.4267 316.244 12.6957 315.65 13.16C314.945 13.6391 314.355 14.2672 313.92 15L298.15 42.68V14.93C298.156 14.5911 298.091 14.2548 297.958 13.9429C297.825 13.631 297.628 13.3506 297.38 13.12C297.137 12.8814 296.85 12.6931 296.534 12.5661C296.218 12.4391 295.88 12.3759 295.54 12.38H290.66C290.313 12.3688 289.968 12.429 289.646 12.5568C289.323 12.6847 289.031 12.8774 288.786 13.1231C288.541 13.3688 288.35 13.6622 288.223 13.9851C288.096 14.308 288.037 14.6534 288.05 15V49.48C288.05 50.1705 288.324 50.8328 288.811 51.322C289.298 51.8112 289.96 52.0873 290.65 52.09H299.84C300.646 52.0605 301.426 51.7925 302.08 51.32C302.811 50.8535 303.424 50.2237 303.87 49.48L318.33 23.79V49.48C318.335 50.1706 318.612 50.8314 319.1 51.3198C319.589 51.8081 320.249 52.0848 320.94 52.09H325.82C326.165 52.095 326.507 52.0292 326.825 51.8968C327.143 51.7643 327.431 51.568 327.67 51.32V51.33ZM257.06 21.66C258.285 20.6706 259.826 20.1559 261.4 20.21H269.68V44.21H250.06L254.71 25.61C255.042 24.0694 255.867 22.6791 257.06 21.65V21.66ZM237.24 44.27C236.9 44.2648 236.561 44.3275 236.245 44.4546C235.929 44.5816 235.642 44.7705 235.4 45.01C235.153 45.2414 234.956 45.5219 234.824 45.8336C234.691 46.1453 234.625 46.4813 234.63 46.82V49.49C234.635 50.1806 234.912 50.8414 235.4 51.3298C235.889 51.8181 236.549 52.0948 237.24 52.1H277.51C277.851 52.1052 278.189 52.0425 278.505 51.9154C278.821 51.7884 279.108 51.5995 279.35 51.36C279.597 51.127 279.793 50.8445 279.924 50.5309C280.055 50.2174 280.118 49.8797 280.11 49.54V14.93C280.116 14.5921 280.051 14.2568 279.92 13.9452C279.789 13.6336 279.595 13.3526 279.35 13.12C279.107 12.8814 278.82 12.6931 278.504 12.5661C278.188 12.4391 277.85 12.3759 277.51 12.38H262.51C252.297 12.38 246.297 16.01 244.51 23.27L239.35 44.27H237.24ZM135.94 13.12C135.695 13.3664 135.503 13.6603 135.376 13.9836C135.249 14.3069 135.189 14.6528 135.2 15V17.6C135.187 17.946 135.245 18.291 135.373 18.613C135.5 18.935 135.693 19.2269 135.94 19.47C136.185 19.7146 136.477 19.9065 136.798 20.0338C137.12 20.1611 137.464 20.221 137.81 20.21H150.17V49.53C150.163 49.8695 150.227 50.2068 150.358 50.5202C150.489 50.8336 150.684 51.1162 150.93 51.35C151.173 51.5886 151.46 51.7769 151.776 51.9039C152.092 52.0309 152.43 52.0941 152.77 52.09H158C158.341 52.0952 158.679 52.0325 158.995 51.9054C159.311 51.7783 159.598 51.5895 159.84 51.35C160.089 51.1175 160.286 50.8353 160.418 50.5218C160.551 50.2083 160.616 49.8704 160.61 49.53V20.21H173C173.346 20.2211 173.69 20.1612 174.012 20.034C174.334 19.9068 174.626 19.7149 174.87 19.4703C175.115 19.2257 175.307 18.9335 175.434 18.6118C175.561 18.2901 175.621 17.9458 175.61 17.6V15C175.623 14.6534 175.564 14.308 175.437 13.9851C175.31 13.6622 175.119 13.3688 174.874 13.1231C174.629 12.8774 174.337 12.6847 174.014 12.5568C173.692 12.429 173.347 12.3688 173 12.38H137.81C137.464 12.369 137.12 12.4289 136.798 12.5562C136.477 12.6835 136.185 12.8754 135.94 13.12ZM98.94 12.38C98.5995 12.3748 98.2614 12.4375 97.9454 12.5646C97.6295 12.6916 97.3421 12.8805 97.1 13.12C96.8526 13.3514 96.6563 13.6319 96.5237 13.9436C96.3911 14.2553 96.3251 14.5913 96.33 14.93V49.41C96.3193 49.7628 96.3822 50.114 96.5148 50.4411C96.6474 50.7683 96.8467 51.0642 97.1 51.31C97.3378 51.5573 97.6238 51.7532 97.9402 51.8856C98.2567 52.0181 98.597 52.0842 98.94 52.08H130.76C131.451 52.0748 132.111 51.7981 132.6 51.3098C133.088 50.8214 133.365 50.1606 133.37 49.47V46.8C133.373 46.4635 133.308 46.1299 133.18 45.8187C133.053 45.5074 132.864 45.2248 132.626 44.9873C132.387 44.7499 132.104 44.5624 131.792 44.4358C131.48 44.3092 131.146 44.246 130.81 44.25H106.78V36.08H127.54C128.231 36.0748 128.891 35.7981 129.38 35.3098C129.868 34.8214 130.145 34.1606 130.15 33.47V30.86C130.145 30.1694 129.868 29.5086 129.38 29.0202C128.891 28.5319 128.231 28.2552 127.54 28.25H106.78V20.25H130.89C131.58 20.2474 132.242 19.9712 132.729 19.482C133.216 18.9928 133.49 18.3305 133.49 17.64V15C133.496 14.6576 133.432 14.3176 133.301 14.0011C133.17 13.6846 132.976 13.3983 132.73 13.16C132.492 12.9132 132.206 12.7176 131.889 12.5852C131.573 12.4528 131.233 12.3864 130.89 12.39H99L98.94 12.38ZM79.09 36.38C79.8357 37.3946 80.2379 38.6208 80.2379 39.88C80.2379 41.1392 79.8357 42.3654 79.09 43.38C78.6682 43.8204 78.1551 44.1632 77.5868 44.3844C77.0184 44.6055 76.4086 44.6996 75.8 44.66H60V35.13H75.82C76.4232 35.0821 77.0297 35.1655 77.5976 35.3744C78.1656 35.5833 78.6815 35.9127 79.11 36.34L79.09 36.38ZM77.58 20.96C78.2579 21.7821 78.6286 22.8145 78.6286 23.88C78.6286 24.9455 78.2579 25.9779 77.58 26.8C77.2033 27.1476 76.7601 27.4154 76.2772 27.5872C75.7943 27.7591 75.2816 27.8315 74.77 27.8H60V19.87H74.8C75.3135 19.846 75.8266 19.9267 76.3079 20.1072C76.7893 20.2877 77.2289 20.5642 77.6 20.92L77.58 20.96ZM50.3 51.36C50.5382 51.6068 50.8242 51.8024 51.1406 51.9348C51.457 52.0672 51.7971 52.1336 52.14 52.13H76C79.7206 52.2424 83.3772 51.144 86.42 49C87.8015 48.002 88.9133 46.6761 89.6551 45.1418C90.397 43.6074 90.7458 41.9126 90.67 40.21C90.7769 38.3249 90.3291 36.4498 89.3818 34.8165C88.4345 33.1832 87.0293 31.8633 85.34 31.02C86.49 30.175 87.4269 29.0733 88.0762 27.8025C88.7254 26.5318 89.0692 25.127 89.08 23.7C89.1539 21.3271 88.3811 19.0053 86.9 17.15C85.5167 15.4447 83.6794 14.1655 81.6 13.46C79.3657 12.7363 77.0284 12.3816 74.68 12.41H52.17C51.8266 12.4034 51.4857 12.4684 51.1688 12.601C50.852 12.7336 50.5663 12.9308 50.33 13.18C50.0832 13.4182 49.8876 13.7042 49.7552 14.0206C49.6228 14.337 49.5564 14.677 49.56 15.02V49.5C49.5578 49.8389 49.624 50.1747 49.7546 50.4874C49.8851 50.8002 50.0775 51.0833 50.32 51.32L50.3 51.36ZM44.8 51.36C45.0473 51.1222 45.2432 50.8362 45.3756 50.5198C45.5081 50.2033 45.5742 49.863 45.57 49.52V46.91C45.5766 46.5666 45.5116 46.2256 45.379 45.9088C45.2464 45.592 45.0492 45.3063 44.8 45.07C44.5619 44.8232 44.2758 44.6276 43.9594 44.4952C43.6431 44.3628 43.303 44.2964 42.96 44.3H39.96V15C39.9548 14.3094 39.6781 13.6486 39.1898 13.1602C38.7014 12.6719 38.0406 12.3952 37.35 12.39H32.13C31.7895 12.3848 31.4514 12.4475 31.1354 12.5746C30.8195 12.7017 30.5321 12.8905 30.29 13.13C30.0426 13.3614 29.8463 13.6419 29.7137 13.9536C29.5811 14.2653 29.5151 14.6013 29.52 14.94V44.26H10.93V15C10.9366 14.6566 10.8716 14.3156 10.739 13.9988C10.6064 13.682 10.4092 13.3963 10.16 13.16C9.92186 12.9132 9.63582 12.7176 9.31944 12.5852C9.00305 12.4528 8.66296 12.3864 8.32001 12.39H3.11001C2.76951 12.3848 2.43139 12.4475 2.11544 12.5746C1.7995 12.7017 1.51207 12.8905 1.27001 13.13C1.02259 13.3614 0.826286 13.6419 0.693682 13.9536C0.561079 14.2653 0.495112 14.6013 0.50001 14.94V49.48C0.505242 50.1706 0.781903 50.8314 1.27024 51.3198C1.75858 51.8081 2.41941 52.0848 3.11001 52.09H43C43.3398 52.0921 43.6764 52.0249 43.9893 51.8925C44.3022 51.7601 44.5849 51.5653 44.82 51.32L44.8 51.36Z" fill="#E40138"></path>
		<path d="M464.33 70.72H458.42V68.72H464.17C464.303 68.72 464.43 68.6673 464.524 68.5735C464.617 68.4798 464.67 68.3526 464.67 68.22V67.39C464.67 67.2574 464.617 67.1302 464.524 67.0365C464.43 66.9427 464.303 66.89 464.17 66.89H458.42V65.16H464.31C464.443 65.16 464.57 65.1073 464.664 65.0135C464.757 64.9198 464.81 64.7926 464.81 64.66V63.83C464.81 63.6974 464.757 63.5702 464.664 63.4764C464.57 63.3827 464.443 63.33 464.31 63.33H457.07C456.937 63.33 456.81 63.3827 456.716 63.4764C456.623 63.5702 456.57 63.6974 456.57 63.83V72C456.57 72.1326 456.623 72.2598 456.716 72.3535C456.81 72.4473 456.937 72.5 457.07 72.5H464.34C464.473 72.5 464.6 72.4473 464.694 72.3535C464.787 72.2598 464.84 72.1326 464.84 72V71.17C464.825 71.0454 464.765 70.9306 464.671 70.8476C464.577 70.7645 464.455 70.7191 464.33 70.72Z" fill="#00B0AD"></path>
		<path d="M110.4 66.74H106.21V63.84C106.21 63.7074 106.157 63.5802 106.064 63.4865C105.97 63.3927 105.843 63.34 105.71 63.34H104.86C104.727 63.34 104.6 63.3927 104.506 63.4865C104.413 63.5802 104.36 63.7074 104.36 63.84V72.05C104.36 72.1826 104.413 72.3098 104.506 72.4035C104.6 72.4973 104.727 72.55 104.86 72.55H110.71C111.548 72.6333 112.387 72.3897 113.05 71.87C113.313 71.5711 113.512 71.222 113.636 70.8438C113.759 70.4657 113.805 70.0663 113.77 69.67C113.811 69.2527 113.757 68.8316 113.611 68.4384C113.466 68.0452 113.233 67.6901 112.93 67.4C112.189 66.8916 111.294 66.6581 110.4 66.74ZM111.92 69.68C111.92 70.31 111.77 70.48 111.73 70.52C111.427 70.694 111.076 70.7642 110.73 70.72H106.21V68.56H110.65C111.38 68.56 111.65 68.71 111.65 68.78C111.65 68.85 111.92 69.07 111.92 69.68Z" fill="#00B0AD"></path>
		<path d="M541.6 63.33H533.21C533.077 63.33 532.95 63.3827 532.856 63.4764C532.763 63.5702 532.71 63.6974 532.71 63.83V70.1C532.726 70.289 532.673 70.4775 532.56 70.63C532.525 70.6611 532.483 70.6843 532.439 70.698C532.394 70.7118 532.347 70.7159 532.3 70.71H531.85C531.717 70.71 531.59 70.7627 531.496 70.8564C531.403 70.9502 531.35 71.0774 531.35 71.21V72C531.35 72.1326 531.403 72.2598 531.496 72.3535C531.59 72.4473 531.717 72.5 531.85 72.5H532.19C532.517 72.5411 532.849 72.5056 533.161 72.3964C533.472 72.2872 533.753 72.1072 533.983 71.8706C534.213 71.6341 534.385 71.3474 534.485 71.0332C534.585 70.719 534.611 70.3859 534.56 70.06V65.14H540.25V72C540.25 72.1326 540.303 72.2598 540.396 72.3535C540.49 72.4473 540.617 72.5 540.75 72.5H541.6C541.733 72.5 541.86 72.4473 541.954 72.3535C542.047 72.2598 542.1 72.1326 542.1 72V63.79C542.09 63.6644 542.033 63.5473 541.94 63.462C541.847 63.3768 541.726 63.3296 541.6 63.33Z" fill="#00B0AD"></path>
		<path d="M7.14001 63.25H3.55001C2.56901 63.1516 1.58862 63.4425 0.820009 64.06C0.516717 64.4207 0.288056 64.838 0.147295 65.2878C0.00653301 65.7375 -0.043528 66.2107 9.28156e-06 66.68V69.23C-0.0472473 69.6925 0.00406942 70.1599 0.150583 70.6011C0.297097 71.0424 0.535478 71.4476 0.850008 71.79C1.62643 72.365 2.58826 72.6322 3.55001 72.54H7.14001C8.06346 72.6305 8.98966 72.3972 9.76001 71.88C10.0781 71.5223 10.3166 71.101 10.4597 70.6442C10.6028 70.1873 10.6472 69.7053 10.59 69.23V66.68C10.6452 66.1855 10.5934 65.6848 10.4382 65.2121C10.2829 64.7393 10.0277 64.3055 9.69001 63.94C8.94988 63.4124 8.04517 63.1676 7.14001 63.25ZM8.74001 66.61V69.23C8.74001 70.15 8.54001 70.4 8.48001 70.46C8.42001 70.52 8.13001 70.71 7.12001 70.71H3.54001C3.05869 70.7668 2.57181 70.6687 2.15001 70.43C2.04001 70.33 1.85001 70.05 1.85001 69.23V66.61C1.82045 66.3949 1.83444 66.1761 1.89113 65.9665C1.94782 65.7569 2.04606 65.5609 2.18001 65.39C2.58415 65.1332 3.06451 65.0237 3.54001 65.08H7.13001C8.13001 65.08 8.39001 65.27 8.47001 65.35C8.55001 65.43 8.74001 65.7 8.74001 66.61Z" fill="#00B0AD"></path>
		<path d="M180.28 70.72H180.09V63.86C180.09 63.7274 180.037 63.6002 179.944 63.5064C179.85 63.4127 179.723 63.36 179.59 63.36H171.5C171.367 63.36 171.24 63.4127 171.146 63.5064C171.053 63.6002 171 63.7274 171 63.86V69.12C171.022 69.428 170.967 69.7366 170.84 70.0178C170.712 70.2991 170.516 70.5439 170.27 70.73H170C169.867 70.73 169.74 70.7827 169.646 70.8764C169.553 70.9702 169.5 71.0974 169.5 71.23V74.28C169.5 74.4126 169.553 74.5398 169.646 74.6336C169.74 74.7273 169.867 74.78 170 74.78H170.8C170.933 74.78 171.06 74.7273 171.154 74.6336C171.247 74.5398 171.3 74.4126 171.3 74.28V72.56H179V74.28C179 74.4126 179.053 74.5398 179.146 74.6336C179.24 74.7273 179.367 74.78 179.5 74.78H180.31C180.443 74.78 180.57 74.7273 180.664 74.6336C180.757 74.5398 180.81 74.4126 180.81 74.28V71.23C180.813 71.1605 180.801 71.0911 180.775 71.0265C180.75 70.9619 180.71 70.9035 180.66 70.8552C180.61 70.807 180.55 70.77 180.485 70.7467C180.419 70.7233 180.349 70.7143 180.28 70.72ZM178.28 65.18V70.71H172.53C172.579 70.6059 172.623 70.499 172.66 70.39C172.817 69.9022 172.895 69.3924 172.89 68.88V65.17H178.28V65.18Z" fill="#00B0AD"></path>
		<path d="M36.19 63.33H35.34C35.2074 63.33 35.0802 63.3827 34.9865 63.4764C34.8927 63.5702 34.84 63.6974 34.84 63.83V66.53C34.7993 66.7638 34.6835 66.978 34.51 67.14C34.1304 67.3543 33.6936 67.4452 33.26 67.4H30.52C30.0333 67.4606 29.5399 67.3662 29.11 67.13C29.001 67.0171 28.9185 66.8813 28.8683 66.7326C28.8182 66.5839 28.8017 66.4259 28.82 66.27V63.84C28.82 63.7074 28.7673 63.5802 28.6736 63.4865C28.5798 63.3927 28.4526 63.34 28.32 63.34H27.47C27.3374 63.34 27.2102 63.3927 27.1165 63.4865C27.0227 63.5802 26.97 63.7074 26.97 63.84V65.94C26.9239 66.4158 26.9823 66.8959 27.1413 67.3468C27.3002 67.7976 27.5557 68.2083 27.89 68.55C28.6579 69.0836 29.5885 69.3312 30.52 69.25H33.26C33.7308 69.2546 34.1996 69.1871 34.65 69.05L34.84 68.98V72C34.84 72.1326 34.8927 72.2598 34.9865 72.3535C35.0802 72.4473 35.2074 72.5 35.34 72.5H36.19C36.3226 72.5 36.4498 72.4473 36.5436 72.3535C36.6373 72.2598 36.69 72.1326 36.69 72V63.79C36.6799 63.6644 36.6228 63.5473 36.5301 63.462C36.4374 63.3768 36.316 63.3296 36.19 63.33Z" fill="#00B0AD"></path>
		<path d="M60.85 70.72H54.93V68.72H60.68C60.8126 68.72 60.9398 68.6673 61.0336 68.5735C61.1273 68.4798 61.18 68.3526 61.18 68.22V67.39C61.18 67.2574 61.1273 67.1302 61.0336 67.0365C60.9398 66.9427 60.8126 66.89 60.68 66.89H54.93V65.16H60.82C60.9526 65.16 61.0798 65.1073 61.1736 65.0135C61.2673 64.9198 61.32 64.7926 61.32 64.66V63.83C61.32 63.6974 61.2673 63.5702 61.1736 63.4764C61.0798 63.3827 60.9526 63.33 60.82 63.33H53.58C53.4474 63.33 53.3202 63.3827 53.2264 63.4764C53.1327 63.5702 53.08 63.6974 53.08 63.83V72C53.08 72.1326 53.1327 72.2598 53.2264 72.3535C53.3202 72.4473 53.4474 72.5 53.58 72.5H60.84C60.9726 72.5 61.0998 72.4473 61.1936 72.3535C61.2873 72.2598 61.34 72.1326 61.34 72V71.17C61.3323 71.0462 61.277 70.9302 61.1856 70.8463C61.0943 70.7625 60.974 70.7172 60.85 70.72Z" fill="#00B0AD"></path>
		<path d="M87.45 63.33H86.6C86.4674 63.33 86.3402 63.3827 86.2464 63.4764C86.1527 63.5702 86.1 63.6974 86.1 63.83V66.89H79.82V63.83C79.82 63.6974 79.7673 63.5702 79.6736 63.4764C79.5798 63.3827 79.4526 63.33 79.32 63.33H78.47C78.3374 63.33 78.2102 63.3827 78.1164 63.4764C78.0227 63.5702 77.97 63.6974 77.97 63.83V72C77.97 72.1326 78.0227 72.2598 78.1164 72.3535C78.2102 72.4473 78.3374 72.5 78.47 72.5H79.32C79.4526 72.5 79.5798 72.4473 79.6736 72.3535C79.7673 72.2598 79.82 72.1326 79.82 72V68.7H86.1V72C86.1 72.1326 86.1527 72.2598 86.2464 72.3535C86.3402 72.4473 86.4674 72.5 86.6 72.5H87.45C87.5826 72.5 87.7098 72.4473 87.8036 72.3535C87.8973 72.2598 87.95 72.1326 87.95 72V63.79C87.9377 63.6653 87.88 63.5495 87.7878 63.4646C87.6955 63.3798 87.5753 63.3319 87.45 63.33Z" fill="#00B0AD"></path>
		<path d="M567.09 67.39C566.346 66.8905 565.453 66.6611 564.56 66.74H560.37V63.84C560.37 63.7074 560.317 63.5802 560.224 63.4865C560.13 63.3927 560.003 63.34 559.87 63.34H559C558.867 63.34 558.74 63.3927 558.646 63.4865C558.553 63.5802 558.5 63.7074 558.5 63.84V72.05C558.5 72.1826 558.553 72.3098 558.646 72.4035C558.74 72.4973 558.867 72.55 559 72.55H564.85C565.688 72.6333 566.527 72.3897 567.19 71.87C567.454 71.5721 567.654 71.2231 567.778 70.8447C567.902 70.4663 567.947 70.0665 567.91 69.67C567.954 69.2527 567.903 68.8308 567.761 68.436C567.619 68.0411 567.39 67.6835 567.09 67.39ZM566.09 69.68C566.09 70.31 565.94 70.48 565.9 70.52C565.597 70.694 565.246 70.7642 564.9 70.72H560.38V68.56H564.82C565.55 68.56 565.82 68.71 565.87 68.78C565.92 68.85 566.08 69.07 566.08 69.68H566.09Z" fill="#00B0AD"></path>
		<path d="M204 63.25H200.41C199.429 63.1516 198.449 63.4425 197.68 64.06C197.378 64.4212 197.151 64.8388 197.012 65.2886C196.873 65.7384 196.825 66.2114 196.87 66.68V69.23C196.823 69.6925 196.874 70.1599 197.021 70.6011C197.167 71.0424 197.405 71.4476 197.72 71.79C198.496 72.365 199.458 72.6322 200.42 72.54H204C204.923 72.6305 205.85 72.3972 206.62 71.88C206.938 71.5204 207.177 71.0974 207.32 70.6389C207.463 70.1804 207.507 69.6969 207.45 69.22V66.67C207.504 66.1755 207.451 65.6752 207.296 65.2027C207.141 64.7301 206.887 64.2962 206.55 63.93C205.806 63.4123 204.903 63.1717 204 63.25ZM198.72 66.61C198.663 66.1771 198.778 65.7392 199.04 65.39C199.444 65.1332 199.925 65.0237 200.4 65.08H204C204.95 65.08 205.25 65.27 205.34 65.35C205.43 65.43 205.62 65.71 205.62 66.61V69.23C205.62 70.15 205.42 70.41 205.36 70.46C205.3 70.51 205.01 70.71 204 70.71H200.41C199.927 70.772 199.438 70.6698 199.02 70.42C198.91 70.32 198.72 70.04 198.72 69.22V66.61Z" fill="#00B0AD"></path>
		<path d="M344.73 63.33H339.2C338.3 63.2527 337.402 63.5011 336.67 64.03C336.367 64.333 336.134 64.6985 335.987 65.101C335.84 65.5034 335.783 65.9331 335.82 66.36C335.792 66.7449 335.847 67.1313 335.984 67.4923C336.12 67.8533 336.334 68.1802 336.61 68.45C336.949 68.7515 337.364 68.9554 337.81 69.04L335.61 71.71C335.549 71.7827 335.511 71.8712 335.498 71.965C335.486 72.0589 335.501 72.1543 335.541 72.2402C335.58 72.3261 335.644 72.399 335.723 72.4503C335.803 72.5016 335.895 72.5292 335.99 72.53H337.17C337.246 72.529 337.322 72.5116 337.391 72.4788C337.46 72.446 337.521 72.3986 337.57 72.34L340.04 69.14H343.38V72C343.38 72.1326 343.433 72.2598 343.526 72.3535C343.62 72.4473 343.747 72.5 343.88 72.5H344.73C344.863 72.5 344.99 72.4473 345.084 72.3535C345.177 72.2598 345.23 72.1326 345.23 72V63.79C345.22 63.6644 345.163 63.5473 345.07 63.462C344.977 63.3767 344.856 63.3296 344.73 63.33ZM343.38 65.16V67.33H338.94C338.564 67.3754 338.182 67.313 337.84 67.15C337.76 67.09 337.67 66.85 337.67 66.37C337.614 66.2044 337.606 66.0267 337.645 65.8564C337.684 65.6861 337.769 65.5298 337.891 65.4047C338.013 65.2797 338.167 65.1907 338.336 65.1475C338.505 65.1043 338.683 65.1086 338.85 65.16H343.38Z" fill="#00B0AD"></path>
		<path d="M370.47 63.33H364.94C364.037 63.2547 363.137 63.5028 362.4 64.03C362.097 64.333 361.864 64.6985 361.717 65.101C361.57 65.5035 361.513 65.9331 361.55 66.36C361.522 66.7449 361.578 67.1313 361.714 67.4923C361.85 67.8533 362.064 68.1802 362.34 68.45C362.679 68.7516 363.094 68.9555 363.54 69.04L361.34 71.71C361.279 71.7827 361.241 71.8712 361.228 71.9651C361.216 72.0589 361.231 72.1544 361.271 72.2402C361.31 72.3261 361.374 72.399 361.453 72.4503C361.533 72.5016 361.625 72.5292 361.72 72.53H362.9C362.976 72.529 363.052 72.5116 363.121 72.4788C363.19 72.446 363.251 72.3986 363.3 72.34L365.77 69.14H369.11V72C369.11 72.1326 369.163 72.2598 369.256 72.3535C369.35 72.4473 369.477 72.5 369.61 72.5H370.46C370.593 72.5 370.72 72.4473 370.814 72.3535C370.907 72.2598 370.96 72.1326 370.96 72V63.79C370.955 63.6644 370.901 63.5459 370.809 63.4599C370.717 63.3739 370.596 63.3273 370.47 63.33ZM369.13 65.16V67.33H364.69C364.314 67.3754 363.932 67.313 363.59 67.15C363.59 67.15 363.41 66.98 363.41 66.37C363.353 66.2033 363.344 66.0243 363.383 65.8527C363.423 65.6811 363.509 65.5238 363.632 65.3984C363.756 65.2729 363.911 65.1842 364.082 65.1421C364.253 65.1 364.432 65.1062 364.6 65.16H369.13Z" fill="#00B0AD"></path>
		<path d="M439.58 63.33H437.76C437.672 63.3284 437.586 63.3509 437.51 63.395C437.434 63.439 437.372 63.503 437.33 63.58L433.62 69.86L429.89 63.58C429.845 63.5063 429.782 63.4454 429.707 63.4034C429.631 63.3613 429.546 63.3395 429.46 63.34H427.64C427.507 63.34 427.38 63.3927 427.286 63.4864C427.193 63.5802 427.14 63.7074 427.14 63.84V72.05C427.14 72.1826 427.193 72.3098 427.286 72.4035C427.38 72.4973 427.507 72.55 427.64 72.55H428.49C428.623 72.55 428.75 72.4973 428.844 72.4035C428.937 72.3098 428.99 72.1826 428.99 72.05V65.52L432.99 72.31C433.034 72.3856 433.096 72.4484 433.172 72.4923C433.247 72.5361 433.333 72.5595 433.42 72.56H433.86C433.948 72.5616 434.034 72.5391 434.11 72.495C434.186 72.451 434.248 72.387 434.29 72.31L438.29 65.54V72.05C438.29 72.1826 438.343 72.3098 438.436 72.4035C438.53 72.4973 438.657 72.55 438.79 72.55H439.64C439.773 72.55 439.9 72.4973 439.994 72.4035C440.087 72.3098 440.14 72.1826 440.14 72.05V63.84C440.144 63.7676 440.131 63.6954 440.104 63.6284C440.076 63.5614 440.034 63.5014 439.981 63.4526C439.927 63.4038 439.863 63.3675 439.794 63.3463C439.725 63.3251 439.652 63.3196 439.58 63.33Z" fill="#00B0AD"></path>
		<path d="M319.14 63.33H318.29C318.157 63.33 318.03 63.3827 317.936 63.4764C317.843 63.5702 317.79 63.6974 317.79 63.83V66.89H311.51V63.83C311.51 63.6974 311.457 63.5702 311.364 63.4764C311.27 63.3827 311.143 63.33 311.01 63.33H310.16C310.027 63.33 309.9 63.3827 309.806 63.4764C309.713 63.5702 309.66 63.6974 309.66 63.83V72C309.66 72.1326 309.713 72.2598 309.806 72.3535C309.9 72.4473 310.027 72.5 310.16 72.5H311C311.133 72.5 311.26 72.4473 311.354 72.3535C311.447 72.2598 311.5 72.1326 311.5 72V68.7H317.78V72C317.78 72.1326 317.833 72.2598 317.926 72.3535C318.02 72.4473 318.147 72.5 318.28 72.5H319.13C319.263 72.5 319.39 72.4473 319.484 72.3535C319.577 72.2598 319.63 72.1326 319.63 72V63.79C319.618 63.667 319.562 63.5525 319.471 63.4679C319.381 63.3832 319.264 63.3343 319.14 63.33Z" fill="#00B0AD"></path>
		<path d="M487.42 66.74H483.23V65.17H489.6C489.733 65.17 489.86 65.1173 489.954 65.0236C490.047 64.9298 490.1 64.8026 490.1 64.67V63.84C490.1 63.7074 490.047 63.5802 489.954 63.4865C489.86 63.3927 489.733 63.34 489.6 63.34H481.88C481.747 63.34 481.62 63.3927 481.526 63.4865C481.433 63.5802 481.38 63.7074 481.38 63.84V72.05C481.38 72.1826 481.433 72.3098 481.526 72.4035C481.62 72.4973 481.747 72.55 481.88 72.55H487.73C488.568 72.6333 489.407 72.3897 490.07 71.87C490.336 71.5734 490.538 71.2246 490.662 70.8458C490.786 70.467 490.829 70.0666 490.79 69.67C490.83 69.2528 490.775 68.8319 490.63 68.4388C490.485 68.0457 490.252 67.6906 489.95 67.4C489.209 66.8916 488.314 66.6581 487.42 66.74ZM488.94 69.68C488.94 70.31 488.79 70.48 488.75 70.52C488.448 70.6954 488.096 70.7657 487.75 70.72H483.23V68.56H487.67C488.4 68.56 488.67 68.71 488.72 68.78C488.77 68.85 488.94 69.07 488.94 69.68Z" fill="#00B0AD"></path>
		<path d="M236.23 63.33H234.41C234.322 63.3284 234.236 63.3509 234.16 63.395C234.084 63.439 234.022 63.503 233.98 63.58L230.27 69.86L226.54 63.58C226.495 63.5063 226.432 63.4455 226.357 63.4034C226.281 63.3613 226.196 63.3395 226.11 63.34H224.29C224.157 63.34 224.03 63.3927 223.936 63.4865C223.843 63.5802 223.79 63.7074 223.79 63.84V72.05C223.79 72.1826 223.843 72.3098 223.936 72.4036C224.03 72.4973 224.157 72.55 224.29 72.55H225.14C225.273 72.55 225.4 72.4973 225.494 72.4036C225.587 72.3098 225.64 72.1826 225.64 72.05V65.51L229.64 72.3C229.684 72.3756 229.746 72.4384 229.822 72.4823C229.897 72.5261 229.983 72.5495 230.07 72.55H230.51C230.598 72.5516 230.684 72.5291 230.76 72.4851C230.836 72.441 230.898 72.377 230.94 72.3L234.94 65.53V72C234.94 72.1326 234.993 72.2598 235.086 72.3536C235.18 72.4473 235.307 72.5 235.44 72.5H236.29C236.423 72.5 236.55 72.4473 236.644 72.3536C236.737 72.2598 236.79 72.1326 236.79 72V63.79C236.787 63.7219 236.769 63.6552 236.738 63.5943C236.707 63.5334 236.664 63.4796 236.612 63.4363C236.559 63.393 236.498 63.3611 236.432 63.3428C236.366 63.3245 236.298 63.3202 236.23 63.33Z" fill="#00B0AD"></path>
		<path d="M292.38 63.33H291.53C291.397 63.33 291.27 63.3827 291.176 63.4764C291.083 63.5702 291.03 63.6974 291.03 63.83V70.71H287.1V63.83C287.1 63.6974 287.047 63.5702 286.954 63.4764C286.86 63.3827 286.733 63.33 286.6 63.33H285.75C285.617 63.33 285.49 63.3827 285.396 63.4764C285.303 63.5702 285.25 63.6974 285.25 63.83V70.71H281.32V63.83C281.32 63.6974 281.267 63.5702 281.174 63.4764C281.08 63.3827 280.953 63.33 280.82 63.33H280C279.867 63.33 279.74 63.3827 279.646 63.4764C279.553 63.5702 279.5 63.6974 279.5 63.83V72C279.5 72.1326 279.553 72.2598 279.646 72.3536C279.74 72.4473 279.867 72.5 280 72.5H292.41C292.543 72.5 292.67 72.4473 292.764 72.3536C292.857 72.2598 292.91 72.1326 292.91 72V63.79C292.897 63.6601 292.835 63.5399 292.737 63.4544C292.638 63.3688 292.51 63.3243 292.38 63.33Z" fill="#00B0AD"></path>
		<path d="M514.81 70.72H508.89V68.72H514.64C514.773 68.72 514.9 68.6673 514.994 68.5735C515.087 68.4798 515.14 68.3526 515.14 68.22V67.39C515.14 67.2574 515.087 67.1302 514.994 67.0365C514.9 66.9427 514.773 66.89 514.64 66.89H508.89V65.16H514.78C514.913 65.16 515.04 65.1073 515.134 65.0135C515.227 64.9198 515.28 64.7926 515.28 64.66V63.83C515.28 63.6974 515.227 63.5702 515.134 63.4764C515.04 63.3827 514.913 63.33 514.78 63.33H507.54C507.407 63.33 507.28 63.3827 507.186 63.4764C507.093 63.5702 507.04 63.6974 507.04 63.83V72C507.04 72.1326 507.093 72.2598 507.186 72.3535C507.28 72.4473 507.407 72.5 507.54 72.5H514.81C514.943 72.5 515.07 72.4473 515.164 72.3535C515.257 72.2598 515.31 72.1326 515.31 72V71.17C515.298 71.0462 515.239 70.9316 515.147 70.8483C515.055 70.7651 514.934 70.7194 514.81 70.72Z" fill="#00B0AD"></path>
		<path d="M259.1 63.6C259.058 63.5192 258.995 63.4514 258.918 63.4038C258.84 63.3562 258.751 63.3307 258.66 63.33H257.36C257.269 63.3284 257.179 63.353 257.101 63.4008C257.023 63.4486 256.96 63.5178 256.92 63.6L252.67 71.81C252.628 71.8848 252.606 71.9692 252.606 72.055C252.606 72.1408 252.628 72.2252 252.67 72.3C252.715 72.3737 252.778 72.4345 252.853 72.4766C252.929 72.5187 253.014 72.5405 253.1 72.54H254.05C254.142 72.5389 254.232 72.5134 254.312 72.4659C254.391 72.4185 254.456 72.3509 254.5 72.27L255.41 70.49H260.56L261.47 72.27C261.513 72.3523 261.577 72.4211 261.657 72.4688C261.736 72.5165 261.827 72.5411 261.92 72.54H262.92C263.006 72.541 263.091 72.5197 263.167 72.4781C263.243 72.4364 263.306 72.3759 263.352 72.3024C263.397 72.2289 263.423 72.1449 263.426 72.0586C263.429 71.9723 263.41 71.8867 263.37 71.81L259.1 63.6ZM259.61 68.66H256.38L257.99 65.52L259.61 68.66Z" fill="#00B0AD"></path>
		<path fill-rule="evenodd" clip-rule="evenodd" d="M226.62 9.9C223.51 8.14 220.06 10.32 217.52 12.64C215.006 15.2176 212.668 17.9604 210.52 20.85C209.21 22.5253 207.487 23.8313 205.52 24.64C204.825 24.9384 204.106 25.1759 203.37 25.35C202.62 25.54 203.63 25.79 205.64 25.1C207.906 24.3579 209.963 23.0861 211.64 21.39C213.42 19.54 216.85 15.73 218.74 14C220.07 12.78 223.44 10.54 225.41 12C225.99 12.42 226.05 13 225.82 14.38C225.1 18.48 222.65 22.27 219.82 25.25C215.49 29.87 210.13 33.91 203.69 34.72C199.13 35.3 195.49 31.29 195.38 26.93C195.09 18 200.25 9.80001 206 3.44001C208 1.20001 210.46 1.21 211.6 2.08C212.4 2.55 212.36 5.08 212.6 6.21C213 8.47 217.47 7.88001 218.85 8.44001C219.132 8.48962 219.387 8.63736 219.57 8.85702C219.753 9.07668 219.852 9.35407 219.85 9.64C219.85 9.71 219.96 10.21 220.25 10.03C220.54 9.85 220.43 9.35 220.38 9.09C220.2 8.41 220.02 8.2 218.89 7.77C217.99 7.45 214.4 7.27 213.95 5.77C213.714 4.95218 213.629 4.09822 213.7 3.25C213.684 2.79894 213.577 2.35575 213.386 1.94657C213.196 1.5374 212.925 1.17052 212.591 0.867603C212.256 0.564681 211.864 0.331844 211.438 0.182834C211.012 0.0338238 210.56 -0.0283405 210.11 3.15811e-06C208.148 -0.0251495 206.24 0.640335 204.72 1.88C201.523 4.49236 198.843 7.68071 196.82 11.28C193.6 17.12 191.03 24.94 193.82 31.46C194.379 32.764 195.217 33.9292 196.277 34.8728C197.336 35.8164 198.59 36.5153 199.95 36.92C206.12 38.57 212.45 35.03 217.13 31.35C221.81 27.67 226.13 22.8 227.86 17.15C228.53 14.79 229.21 11.36 226.62 9.9Z" fill="#E40138"></path>
		<path fill-rule="evenodd" clip-rule="evenodd" d="M191.44 46.31C195.17 41.7 196.91 36.37 197.86 34.06C197.19 35.16 192.39 41.06 188.86 45.27C185.295 49.2098 181.495 52.9299 177.48 56.41H177.61C177.61 56.41 187.71 50.92 191.44 46.31ZM220.31 32.23C221.31 31.13 222.67 31.97 222.1 33.49C219.19 39.74 209.5 52.05 200.68 57.04C191.86 62.03 180.75 56.94 180.75 56.94C191.75 60.22 198.25 56.53 202.22 53.74C205.8 51.23 211.75 44.16 215.85 39.43C216.28 39.01 216.56 38.62 216.93 38.19L215.85 39.43C214.94 40.33 213.4 41.37 209.06 43.24C202.35 46.14 199.82 45.06 194.17 47.73C188.52 50.4 186.53 52.59 181.55 56.13C193.55 44.49 198.41 43.19 204.17 42.61C209.93 42.03 219.32 33.33 220.31 32.23Z" fill="#00B0AD"></path>
	</g>
	<defs>
		<clipPath id="clip0_1_2">
			<rect width="567.93" height="74.78" fill="white"></rect>
		</clipPath>
	</defs>
</svg>