<svg width="120" height="120" viewBox="0 0 120 120" fill="none" xmlns="http://www.w3.org/2000/svg">
<path d="M59.0986 90C62 90 65.6441 90.1378 68.1213 91.3151C72.0226 93.1692 75.0063 96.6825 75.8027 101.5C76.7163 106.547 75.7285 112.912 70.1104 117.012C67.8872 118.634 63.6878 120 60 120C37.7918 120 18.4027 107.934 8.02832 90H59.0986Z" fill="#1EDE97"/>
<path d="M60.5986 47C67 47 73.4004 48.093 77.8154 50.208C89.0392 55.5007 97.0914 67.0954 97.7754 80C98.2172 85.9035 97.0224 91.9848 94.4287 97.5635C93.7499 86.639 86.7344 75.951 76.4453 71.2217C71.9805 69.0959 66.5 68 60.0986 68H0.530273C0.181559 65.3828 2.5994e-06 62.7125 0 60C9.75647e-08 55.536 0.488404 51.186 1.41309 47H60.5986Z" fill="#1EDE97"/>
<path d="M60 0C93.137 3.31991e-05 120 26.863 120 60C120 65.9944 119.12 71.7832 117.483 77.2451C117.355 57.8676 105.268 38.7161 87.3086 30.3613C79.9396 26.825 71.5 25 60.5986 25H11.2617C22.1535 9.85965 39.925 -4.38752e-07 60 0Z" fill="#1EDE97"/>
</svg>
