<?xml version="1.0" encoding="UTF-8"?> <svg xmlns="http://www.w3.org/2000/svg" width="1130" height="1650" viewBox="0 0 1130 1650" fill="none"> <path d="M546.717 925.672C546.717 925.672 633.751 921.698 686.438 927.576C760.543 935.846 892.633 974.642 931.894 1026.63C931.894 1026.63 914.979 1053.36 888.381 1070.14C851.899 1093.16 797.194 1107.49 742.875 1099.83C560.813 1074.15 515.07 965.435 515.07 965.435C513.667 967.731 520.962 954.346 528.929 942.599C536.266 931.783 546.717 925.672 546.717 925.672Z" fill="#EE2654"></path> <path d="M640.49 1360.62C731.957 1612.95 1010.48 1667.59 969.814 1645.09C929.145 1622.6 792.593 1501.2 782.321 1309.01C782.321 1309.01 752.817 1306.71 714.436 1318.89C675.348 1331.29 640.49 1360.62 640.49 1360.62Z" fill="#EE2654"></path> <path d="M479.137 1491.88C483.39 1466.73 511.898 1474.35 525.316 1481.2C532.97 1485.1 536.857 1493.04 534.867 1500.79C534.829 1500.94 534.792 1501.08 534.755 1501.22C529.851 1520.06 475.492 1590.8 457.261 1586.33C441.637 1582.5 473.229 1526.79 479.137 1491.88Z" fill="#EE2654"></path> <path d="M391.972 1530.67C391.972 1530.67 389.704 1569.54 400.366 1573.89C411.027 1578.24 436.744 1555.34 467.904 1520.46C499.064 1485.58 443.019 1481.33 416.614 1491.35" fill="#EE2654"></path> <path d="M322.441 1502.21C338.083 1484.77 373.735 1474.63 394.656 1482.13C415.577 1489.62 398.525 1524.97 380.029 1548.1C361.533 1571.23 340.979 1579.71 337.091 1576.23C333.201 1572.75 317.291 1528.37 317.291 1528.37" fill="#EE2654"></path> <path d="M291.259 1442.99C304.087 1443.55 335.143 1487.09 327.839 1509.45C318.764 1537.22 284.994 1553.42 259.47 1547.4C233.946 1541.38 232.143 1507.65 236.654 1494.5C241.164 1481.34 265.996 1441.88 291.259 1442.99Z" fill="#EE2654"></path> <path d="M244.231 1446.8C242.138 1426.81 215.292 1423.03 198.144 1437.72C180.996 1452.41 171.12 1468.94 172.187 1479.31C173.254 1489.67 170.674 1518.1 179.498 1520.23C188.322 1522.37 227.871 1504.99 232.088 1488.02C236.304 1471.04 244.231 1446.8 244.231 1446.8Z" fill="#EE2654"></path> <path d="M170.34 1357.26C128.747 1437.94 -45.8756 1453.8 12.0418 1420.86C69.9591 1387.93 104.714 1354.58 134.868 1253.12C134.868 1253.12 146.019 1266.84 148.768 1272.08C157.586 1288.9 152.876 1313.78 157.671 1328.84L170.34 1357.26Z" fill="#EE2654"></path> <path d="M456.777 591.267C456.777 591.267 553.632 536.834 657 536.839C735.471 536.842 827.675 594.066 824.975 671.681C822.833 733.238 786.916 772.555 741.915 778.111C700.144 783.269 659.276 754.586 671.884 736.955C690.913 710.343 697.293 752.211 707.8 752.211C718.307 752.211 731.183 729.609 728.593 696.235C725.737 659.422 671.112 628.586 598.069 666.913C532.783 701.17 532.889 773.173 556.547 826.462C579.997 879.294 635.387 903.657 635.387 903.657C635.387 903.657 528.964 907.446 489.697 898.054C447.832 888.041 396.037 853.23 396.012 808.491C395.992 774.999 438.453 783.961 438.453 757.754C438.453 749.023 435.015 729.947 441.115 674.265C446.757 622.763 456.777 591.267 456.777 591.267Z" fill="#EE2654"></path> <path d="M368.959 904.597C368.959 904.597 329.993 933.354 295.159 966.986C260.327 1000.62 229.098 1040.85 229.098 1040.85C229.098 1040.85 192.463 1043.86 162.435 1049.86C132.407 1055.87 116.518 1070.81 102.981 1070.88C98.7768 1070.91 93.9715 1060.67 75.9555 1064.88C57.9381 1069.08 31.5142 1088.3 29.1115 1122.53C26.7088 1156.76 33.4395 1178.07 33.4395 1178.07C33.4395 1178.07 69.3182 1191.03 109.555 1218.66C132.703 1234.55 152.257 1250.04 159.917 1263.04C165.666 1272.8 167.435 1290.65 168.135 1294.93C170.73 1310.79 174.279 1326.4 174.279 1326.4C174.279 1326.4 194.129 1278.68 207.109 1264.86C207.109 1264.86 203.801 1251.09 192.666 1228.22C187.863 1218.35 176.113 1190.31 176.113 1190.31C173.214 1182.8 175.515 1168.7 179.118 1161.5C191.995 1135.77 223.675 1080.49 236.905 1080.49C253.721 1080.49 275.342 1089.5 282.549 1149.56C282.549 1149.56 314.378 1052.26 322.786 1029.44C331.194 1006.62 368.959 904.597 368.959 904.597Z" fill="#EE2654"></path> <path d="M404.692 877.216C409.652 882.816 441.751 920.231 524.444 924.359C524.444 924.359 501.232 954.808 490.663 976.569C480.092 998.331 410.517 1149.64 384.939 1212.91C359.36 1276.18 330.641 1353.96 330.641 1353.96C330.641 1353.96 302.371 1349.39 288.908 1345.32C275.445 1341.25 253.008 1333.17 251.663 1332.72C250.316 1332.28 282.625 1204.38 293.395 1170.28C304.165 1136.17 359.703 949.401 396.012 883.879L404.692 877.216Z" fill="#EE2654"></path> <path d="M239.721 1095.52C251.309 1092.18 261.32 1113.22 265.22 1128.52C269.12 1143.82 273.02 1186.41 268.82 1202.01C265.18 1215.53 245.441 1288.57 240.795 1317.26C240.451 1319.38 237.475 1319.57 236.843 1317.51C232.104 1302.06 223.099 1268.91 221.123 1261.71C211.44 1226.39 190.012 1193.68 190.036 1179.92C190.053 1169.6 229.093 1098.58 239.721 1095.52Z" fill="#EE2654"></path> <path d="M939.777 1038.61C910.405 1081.14 838.778 1130.72 718.998 1109.6C617.195 1091.65 571.333 1047.35 538.894 1024.26C538.894 1024.26 577.538 1089.87 628.474 1116.68C678.262 1142.88 730.499 1156.35 782.567 1149.09C816.873 1144.31 904.034 1125.28 944.158 1044.33L939.777 1038.61Z" fill="#EE2654"></path> <path d="M504.6 982.39C504.6 982.39 448.351 1091.65 399.946 1215.18C399.946 1215.18 444.526 1182.36 500.39 1171.23C557.348 1159.88 591.482 1153.19 613.452 1158.17C635.426 1163.14 640.2 1203.67 644.058 1219.36C647.915 1235.06 656.923 1274.15 646.983 1285.66C637.043 1297.17 616.184 1301.96 569.514 1308.59C522.667 1315.25 456.399 1337.45 429.256 1345.19C406.862 1351.57 347.662 1370.53 319.27 1365.65C294.76 1361.43 249.616 1352.31 234.239 1337.04C225.367 1328.23 220.79 1314.52 217.528 1303.45C214.23 1292.24 212.3 1283.72 212.3 1283.72C212.3 1283.72 194.623 1311.83 190.036 1326.4C186.211 1338.55 183.104 1357.67 186.702 1374.2C189.92 1388.98 183.96 1403.18 183.96 1409.83C183.96 1419.34 194.9 1431.08 194.9 1431.08C194.9 1431.08 208.17 1419.21 227.195 1421.98C247.647 1424.97 252.542 1443.99 251.247 1448.1C249.952 1452.21 246.499 1463.52 246.499 1463.52C246.499 1463.52 259.866 1445.74 273.124 1440.05C287.018 1434.1 297.232 1433.64 307.023 1443.98C316.814 1454.32 329.258 1470.21 333.174 1486.63C333.174 1486.63 345.035 1476.76 369.327 1473.22C393.619 1469.68 412.755 1474.97 416.424 1483.74C416.424 1483.74 429.395 1479.07 445.196 1479.28C460.998 1479.5 473.498 1486.63 473.498 1486.63C473.498 1486.63 477.948 1469.81 494.175 1467.87C512.636 1465.67 524.728 1470.91 535.383 1479.28C546.039 1487.66 542.148 1499.16 542.148 1499.16C542.148 1499.16 546.378 1488.17 547.052 1483.43C547.73 1478.7 553.48 1444.7 561.767 1424.91C570.055 1405.12 591.078 1371.13 638.167 1335.74C685.258 1300.35 729.839 1288.93 763.554 1288.09C797.27 1287.26 798.106 1288.65 817.61 1292.27C837.115 1295.89 854.792 1311.96 920.15 1285.03C1007.16 1249.18 1064.88 1191.62 1083.54 1162.92C1102.21 1134.22 1106.84 1108.37 1106.84 1108.37C1106.84 1108.37 1067.95 1115.11 1032.91 1108.98C1000 1103.23 965.044 1072.19 954.17 1056.54C954.17 1056.54 928.096 1099.8 906.822 1114.2C775.847 1202.85 647.71 1166.15 569.703 1087.93C527.403 1045.52 504.6 982.39 504.6 982.39Z" fill="#EE2654"></path> <path d="M383.612 1254.82C398.079 1224.36 454.103 1196.97 498.592 1186.32C543.081 1175.66 601.157 1169.27 608.883 1171.93C616.608 1174.6 629.407 1208.69 633.124 1227.08C637.511 1248.77 638.515 1272.84 633.956 1277.76C625.247 1287.18 575.576 1291.98 528.696 1301.67C487.28 1310.22 473.461 1321.74 347.009 1350.42C347.009 1350.42 380.023 1262.38 383.612 1254.82Z" fill="#EE2654"></path> <path d="M868.26 412.495C868.26 412.495 879.596 451.085 892.545 471.917C905.494 492.75 933.502 514.959 981.362 502.701C1044.75 486.467 1121.59 435.511 1117.91 309.463C1114.45 191.271 1034.78 28.9312 957.673 0.475159C951.138 -1.93549 945.205 5.30719 948.741 11.3072C968.21 44.3525 1016.11 129.294 1011.07 200.495C999.804 359.607 868.26 412.495 868.26 412.495Z" fill="#EE2654"></path> <path d="M516.598 540.739C516.598 540.739 645.959 454.211 848.038 386.834C848.038 386.834 846.645 416.489 857.121 448.729C869.957 488.238 899.599 531.629 958.967 529.046C1067.82 524.313 1129.54 398.627 1129.54 398.627C1129.54 398.627 1121.04 485.47 1104.24 531.99C1085.32 584.39 1034.51 654.363 1034.51 654.363C1034.51 654.363 1053.35 705.221 1048.97 771.834C1044.59 838.449 1033.88 908.089 1043.26 970.603C1052.64 1033.12 1080.35 1077.52 1092.23 1086.02C1104.11 1094.52 1035.76 1094.79 1006.59 1077.02C954.17 1045.09 964.609 998.415 873.062 957.769C778.227 915.661 654.427 904.745 602.751 855.435C582.947 836.538 556.93 788.402 566.683 739.903C578.113 683.081 652.982 655.886 694.638 678.141C713.557 688.247 707.898 716.482 707.898 716.482C707.898 716.482 685.495 702.085 664.369 715.521C647.605 726.182 633.843 768.281 687.071 791.194C758.489 821.935 840.783 771.33 845.513 677.115C849.947 588.777 767.474 531.066 691.114 517.429C610.326 503.001 516.598 540.739 516.598 540.739Z" fill="#EE2654"></path> </svg> 