<svg width="148" height="26" viewBox="0 0 148 26" fill="none" xmlns="http://www.w3.org/2000/svg">
	<path d="M24.0331 15.9147C24.0331 15.9596 24.0248 15.9946 24.0132 15.9963H16.8149C16.8032 15.9963 16.7949 15.9596 16.7949 15.9147C16.7949 15.8697 16.8032 15.8348 16.8149 15.8331H16.8365C17.7657 15.8164 18.515 14.7641 18.515 13.467V3.03509C18.5183 1.35999 19.8104 0.00292969 21.4056 0.00292969H24.0132C24.0248 0.00292969 24.0331 0.039562 24.0331 0.0845199C24.0331 0.129478 24.0248 0.164445 24.0132 0.16611H23.9915C23.0624 0.182761 22.3131 1.23511 22.3131 2.53223V13.4653C22.3131 14.7624 23.0624 15.8148 23.9915 15.8314H24.0132C24.0248 15.8314 24.0331 15.8697 24.0331 15.913V15.9147Z" fill="#183E75"></path><path d="M94.9565 2.20253C94.9565 2.21419 94.9199 2.22252 94.8749 2.22252C94.83 2.22252 94.795 2.21419 94.7933 2.20253V2.18089C94.7767 1.25176 93.7243 0.502461 92.4272 0.502461H89.3734C88.4643 0.549084 87.735 1.58645 87.735 2.86525V12.9624C87.7316 14.6375 86.4395 15.9946 84.8443 15.9946H82.2368C82.2251 15.9946 82.2168 15.958 82.2168 15.913C82.2168 15.8681 82.2251 15.8331 82.2368 15.8314H82.2584C83.1876 15.8148 83.9368 14.7624 83.9368 13.4653V3.03509C83.9402 1.35999 85.2323 0.00292969 86.8275 0.00292969H94.8566L94.9565 2.20253ZM92.5704 6.40193C92.5704 6.40193 92.5305 6.38528 92.4905 6.38528C92.4522 6.38528 92.4006 6.39194 92.3989 6.39694V6.41026C92.3673 7.19119 91.5697 7.32606 90.5673 7.37602H89.102C88.9655 7.37768 88.8556 7.48924 88.8556 7.62578C88.8556 7.76232 88.9655 7.87222 89.102 7.87388H90.5673C91.5697 7.92384 92.3673 8.05871 92.3989 8.83965V8.85297C92.3989 8.85297 92.4522 8.86629 92.4905 8.86462C92.5305 8.86462 92.5704 8.85297 92.5704 8.84797C92.5704 8.84797 92.5738 8.84298 92.5721 8.84131C92.5405 8.55658 92.4689 8.08702 92.4689 7.87555V7.37602C92.4689 7.16455 92.5405 6.69499 92.5721 6.41026C92.5721 6.40859 92.5704 6.4036 92.5704 6.4036V6.40193Z" fill="#183E75"></path><path d="M30.8596 15.9184C30.8596 15.9634 30.8512 15.9983 30.8396 16H26.9399C26.9282 16 26.9199 15.9634 26.9199 15.9184C26.9199 15.8735 26.9282 15.8385 26.9399 15.8368H26.9615C27.8907 15.8202 28.64 14.7678 28.64 13.4707V2.60423C28.64 2.46769 28.7515 2.35779 28.8881 2.35779C29.0246 2.35779 29.1345 2.46769 29.1362 2.60423V13.469C29.1362 14.7662 29.8855 15.8185 30.8146 15.8352H30.8363C30.8479 15.8352 30.8562 15.8735 30.8562 15.9167L30.8596 15.9184ZM43.9956 0.00333021H40.0959C40.0842 0.00333021 40.0759 0.0399625 40.0759 0.0849204C40.0759 0.129878 40.0842 0.164845 40.0959 0.166511H40.1175C41.0467 0.183162 41.796 1.23551 41.796 2.53263V10.1521L36.3811 3.03216C35.0839 1.35873 32.7411 0.00166511 31.1476 0.00166511H28.0122C28.0006 0.00166511 27.9923 0.0382974 27.9923 0.0832553C27.9923 0.128213 28.0006 0.16318 28.0122 0.164845H28.0339C28.9913 0.321365 29.3227 0.850869 30.3284 1.91987L30.3251 1.90988L40.7053 15.3539C41.0417 15.7286 41.2149 15.8352 41.4213 15.9051C41.7527 16.0167 42.0141 16.005 42.179 15.9833C42.2505 15.9734 42.2955 15.9217 42.2938 15.8551V13.3941V2.5293C42.2938 1.23218 43.0431 0.179831 43.9723 0.16318H43.9939C44.0056 0.16318 44.0139 0.124883 44.0139 0.0815902C44.0139 0.0382974 44.0056 0.00166511 43.9939 0L43.9956 0.00333021Z" fill="#183E75"></path><path d="M80.3697 15.9952H77.4042C75.809 15.9952 73.969 14.6381 73.2897 12.963L72.1857 10.2256H66.7342C66.5976 10.2223 66.4877 10.1124 66.4877 9.97582C66.4877 9.83928 66.5976 9.72939 66.7342 9.72772H71.9842L69.2102 2.85417L69.2318 2.93742C69.0187 2.40792 68.7306 1.8551 68.4026 1.38221L63.9168 13.5042C63.4256 15.116 64.3447 15.7637 65.1723 15.8353C65.1906 15.8353 65.2239 15.837 65.2239 15.837C65.2406 15.8387 65.2322 15.877 65.2156 15.9219C65.1989 15.9635 65.174 15.9985 65.1473 15.9985H65.104H60.7148C60.6982 15.9985 60.6932 15.9519 60.7081 15.9103C60.7248 15.8586 60.7415 15.8387 60.7514 15.8353C60.7614 15.832 60.7698 15.832 60.7764 15.8303C61.6989 15.7537 62.7695 14.9295 63.3457 13.4842L68.0096 0.879351C67.63 0.45808 67.217 0.176677 66.8091 0.170016H66.7858C66.7741 0.170016 66.7508 0.131719 66.7325 0.0884261C66.7142 0.0434683 66.7092 0.00850104 66.7192 0.00683594H69.3267C70.9219 0.00683594 72.7618 1.3639 73.4412 3.03899L77.6806 13.5408C78.2184 14.8046 79.364 15.8187 80.2815 15.8353H80.3048C80.3164 15.8353 80.3397 15.8736 80.3581 15.9169C80.3764 15.9619 80.3814 15.9968 80.3714 15.9985L80.3697 15.9952Z" fill="#183E75"></path><path d="M139.59 4.88835C139.59 4.8334 139.608 4.78511 139.637 4.74349L141.59 2.28745C142.697 0.803846 142.061 0.239375 141.224 0.16611C141.205 0.16611 141.172 0.164445 141.172 0.164445C141.155 0.16278 141.164 0.124482 141.18 0.0795245C141.197 0.0378969 141.224 0.00292969 141.249 0.00292969H141.292H145.739C145.756 0.00292969 145.761 0.0495526 145.746 0.0911803C145.729 0.142799 145.713 0.16278 145.703 0.16611C145.693 0.16944 145.684 0.16944 145.678 0.171105C144.752 0.2477 143.405 1.01198 142.039 2.5189L140.026 5.05153C139.981 5.10481 139.913 5.13978 139.838 5.13978C139.7 5.13978 139.59 5.02822 139.59 4.89002V4.88835ZM147.263 15.913C147.233 15.8681 147.2 15.8314 147.188 15.8314H147.166C146.227 15.8148 144.772 14.7541 143.901 13.447L136.908 3.03509C135.78 1.35999 133.577 0.00292969 131.982 0.00292969H128.542C128.532 0.00292969 128.547 0.039562 128.577 0.0845199C128.607 0.129478 128.64 0.16611 128.652 0.16611H128.674C129.613 0.182761 131.093 1.26008 131.964 2.56886L136.283 9.00616L132.712 13.5103C131.356 14.9972 130.021 15.7515 129.102 15.8281C129.095 15.8281 129.087 15.8281 129.077 15.8331C129.067 15.8364 129.052 15.8564 129.033 15.908C129.02 15.9496 129.025 15.9963 129.04 15.9963H130.74H133.531C133.556 15.9963 133.582 15.9613 133.599 15.9197C133.616 15.8747 133.624 15.8364 133.607 15.8348C133.607 15.8348 133.574 15.8348 133.556 15.8331C132.718 15.7615 132.082 15.1954 133.189 13.7117L136.573 9.44075L138.936 12.9624C140.063 14.6375 142.266 15.9946 143.861 15.9946H147.298C147.308 15.9946 147.293 15.958 147.263 15.913Z" fill="#183E75"></path><path d="M110.772 13.7967C110.772 13.785 110.735 13.7767 110.69 13.7767C110.645 13.7767 110.61 13.785 110.609 13.7967V13.8183C110.592 14.7474 109.54 15.4967 108.242 15.4967H104.356C103.457 15.4518 102.738 14.4377 102.719 13.1806V2.53223C102.719 1.23511 103.469 0.182761 104.398 0.16611H104.419C104.431 0.16611 104.439 0.127813 104.439 0.0845199C104.439 0.0412271 104.431 0.00459479 104.419 0.00292969H97.2212C97.2095 0.00292969 97.2012 0.039562 97.2012 0.0845199C97.2012 0.129478 97.2095 0.164445 97.2212 0.16611H97.2428C98.1719 0.182761 98.9212 1.23511 98.9212 2.53223V12.9624C98.9246 14.6375 100.217 15.9946 101.812 15.9946H110.672L110.772 13.795V13.7967Z" fill="#183E75"></path><path d="M126.192 13.7967L126.092 15.9929H113.139V15.9946C113.127 15.9946 113.119 15.958 113.119 15.913C113.119 15.8681 113.127 15.8331 113.139 15.8314H113.161C114.09 15.8148 114.839 14.7624 114.839 13.4653V3.03509C114.843 1.35999 116.135 0.00292969 117.73 0.00292969H125.759L125.859 2.20253C125.859 2.21419 125.822 2.22252 125.777 2.22252C125.732 2.22252 125.697 2.21419 125.696 2.20253V2.18089C125.679 1.25176 124.627 0.502461 123.33 0.502461H120.276C119.367 0.549084 118.637 1.58645 118.637 2.86525V13.134C118.637 14.4128 119.365 15.4518 120.276 15.4967H123.663C124.96 15.4967 126.012 14.7474 126.029 13.8183V13.7967C126.029 13.785 126.065 13.7767 126.11 13.7767C126.155 13.7767 126.19 13.785 126.192 13.7967ZM123.523 6.40193C123.523 6.40193 123.483 6.38528 123.443 6.38528C123.404 6.38528 123.353 6.39194 123.351 6.39694V6.41026C123.32 7.19119 122.522 7.32606 121.52 7.37602H120.054C119.918 7.37768 119.808 7.48924 119.808 7.62578C119.808 7.76232 119.918 7.87222 120.054 7.87388H121.52C122.522 7.92384 123.32 8.05871 123.351 8.83965V8.85297C123.351 8.85297 123.404 8.86629 123.443 8.86462C123.483 8.86462 123.523 8.85297 123.523 8.84797C123.523 8.84797 123.526 8.84298 123.524 8.84131C123.493 8.55658 123.421 8.08702 123.421 7.87555V7.37602C123.421 7.16455 123.493 6.69499 123.524 6.41026C123.524 6.40859 123.523 6.4036 123.523 6.4036V6.40193Z" fill="#183E75"></path><path d="M14.2793 13.7967C14.2793 13.785 14.2427 13.7767 14.1977 13.7767C14.1528 13.7767 14.1178 13.785 14.1161 13.7967V13.8183C14.0995 14.7474 13.0471 15.4967 11.75 15.4967H7.86366C6.9645 15.4518 6.24517 14.4377 6.22686 13.1806V2.53223C6.22686 1.23511 6.97615 0.182761 7.90528 0.16611H7.92693C7.93859 0.16611 7.94691 0.127813 7.94691 0.0845199C7.94691 0.0412271 7.93859 0.00459479 7.92693 0.00292969H0.728678H0.727013C0.715357 0.00292969 0.707031 0.039562 0.707031 0.0845199C0.707031 0.129478 0.715357 0.164445 0.727013 0.16611H0.748659C1.67779 0.182761 2.42709 1.23511 2.42709 2.53223V12.9624C2.43042 14.6375 3.72254 15.9946 5.31771 15.9946H14.1777L14.2776 13.795L14.2793 13.7967Z" fill="#183E75"></path><path d="M58.8384 13.7967L58.7385 15.9929H45.7856V15.9946C45.7739 15.9946 45.7656 15.958 45.7656 15.913C45.7656 15.8681 45.7739 15.8331 45.7856 15.8314H45.8073C46.7364 15.8148 47.4857 14.7624 47.4857 13.4653V3.03509C47.489 1.35999 48.7811 0.00292969 50.3763 0.00292969H58.4054L58.5053 2.20253C58.5053 2.21419 58.4687 2.22252 58.4238 2.22252C58.3788 2.22252 58.3438 2.21419 58.3422 2.20253V2.18089C58.3255 1.25176 57.2732 0.502461 55.9761 0.502461H52.9222C52.0131 0.549084 51.2838 1.58645 51.2838 2.86525V13.134C51.2838 14.4128 52.0114 15.4518 52.9222 15.4967H56.3091C57.6062 15.4967 58.6585 14.7474 58.6752 13.8183V13.7967C58.6752 13.785 58.7118 13.7767 58.7568 13.7767C58.8017 13.7767 58.8367 13.785 58.8384 13.7967ZM56.1692 6.40193C56.1692 6.40193 56.1292 6.38528 56.0893 6.38528C56.051 6.38528 55.9994 6.39194 55.9977 6.39694V6.41026C55.9661 7.19119 55.1685 7.32606 54.1661 7.37602H52.7008C52.5643 7.37768 52.4544 7.48924 52.4544 7.62578C52.4544 7.76232 52.5643 7.87222 52.7008 7.87388H54.1661C55.1685 7.92384 55.9661 8.05871 55.9977 8.83965V8.85297C55.9977 8.85297 56.051 8.86629 56.0893 8.86462C56.1292 8.86462 56.1692 8.85297 56.1692 8.84797C56.1692 8.84797 56.1725 8.84298 56.1709 8.84131C56.1392 8.55658 56.0676 8.08702 56.0676 7.87555V7.37602C56.0676 7.16455 56.1392 6.69499 56.1709 6.41026C56.1709 6.40859 56.1692 6.4036 56.1692 6.4036V6.40193Z" fill="#183E75"></path><path d="M2.00391 26H50.0039V25H2.00391V26Z" fill="#00934A"></path><path d="M50.0039 26H98.0039V25H50.0039V26Z" fill="#E3E3E3"></path><path d="M98.0039 26H146.004V25H98.0039V26Z" fill="#CF2939"></path>
</svg>