<svg width="151" height="20" class="_logo_4gcm2_22" viewBox="0 0 151 20" fill="none" xmlns="http://www.w3.org/2000/svg"><path d="M13.5081 9.58791H18.1891V17.5549C17.1192 18.3425 15.8887 18.9469 14.4978 19.3681C13.1069 19.7894 11.7159 20 10.325 20C8.36343 20 6.59802 19.5788 5.02876 18.7363C3.4595 17.8755 2.22906 16.685 1.33744 15.1648C0.445812 13.6447 0 11.9231 0 10C0 8.07692 0.445812 6.35531 1.33744 4.83516C2.22906 3.31502 3.46842 2.1337 5.05551 1.29121C6.6426 0.430403 8.43476 0 10.432 0C12.1796 0 13.7488 0.302198 15.1398 0.906593C16.5307 1.51099 17.6898 2.38095 18.6171 3.51648L15.2468 6.64835C13.9807 5.21978 12.4649 4.5055 10.6995 4.5055C9.09457 4.5055 7.80171 5.00916 6.82092 6.01648C5.84014 7.0055 5.34974 8.33333 5.34974 10C5.34974 11.0623 5.57265 12.0147 6.01846 12.8571C6.46427 13.6813 7.08841 14.3315 7.89087 14.8077C8.69333 15.2656 9.61171 15.4945 10.646 15.4945C11.6624 15.4945 12.6165 15.2839 13.5081 14.8626V9.58791Z" fill="#0A4E5C"></path><path d="M35.9463 15.8791H28.0287L26.5575 19.6154H21.1543L29.4196 0.384615H34.6356L42.9277 19.6154H37.4175L35.9463 15.8791ZM34.3949 11.8681L31.9875 5.71429L29.5801 11.8681H34.3949Z" fill="#0A4E5C"></path><path d="M54.4685 14.5055H51.5797V19.6154H46.2834V0.384615H54.843C56.5371 0.384615 58.0083 0.677656 59.2566 1.26374C60.5048 1.8315 61.4678 2.65568 62.1454 3.73626C62.823 4.79854 63.1619 6.05311 63.1619 7.5C63.1619 8.89194 62.8409 10.1099 62.1989 11.1538C61.5748 12.1795 60.6742 12.9853 59.4973 13.5714L63.5364 19.6154H57.8656L54.4685 14.5055ZM57.8121 7.5C57.8121 6.60256 57.5357 5.90659 56.9829 5.41209C56.4301 4.91758 55.6098 4.67033 54.522 4.67033H51.5797V10.3022H54.522C55.6098 10.3022 56.4301 10.0641 56.9829 9.58791C57.5357 9.09341 57.8121 8.39744 57.8121 7.5Z" fill="#0A4E5C"></path><path d="M80.4831 9.58791H85.1642V17.5549C84.0942 18.3425 82.8638 18.9469 81.4728 19.3681C80.0819 19.7894 78.691 20 77.3 20C75.3385 20 73.573 19.5788 72.0038 18.7363C70.4345 17.8755 69.2041 16.685 68.3125 15.1648C67.4208 13.6447 66.975 11.9231 66.975 10C66.975 8.07692 67.4208 6.35531 68.3125 4.83516C69.2041 3.31502 70.4434 2.1337 72.0305 1.29121C73.6176 0.430403 75.4098 0 77.407 0C79.1546 0 80.7239 0.302198 82.1148 0.906593C83.5057 1.51099 84.6648 2.38095 85.5921 3.51648L82.2218 6.64835C80.9557 5.21978 79.4399 4.5055 77.6745 4.5055C76.0696 4.5055 74.7767 5.00916 73.7959 6.01648C72.8152 7.0055 72.3248 8.33333 72.3248 10C72.3248 11.0623 72.5477 12.0147 72.9935 12.8571C73.4393 13.6813 74.0634 14.3315 74.8659 14.8077C75.6684 15.2656 76.5867 15.4945 77.621 15.4945C78.6375 15.4945 79.5915 15.2839 80.4831 14.8626V9.58791Z" fill="#0A4E5C"></path><path d="M102.921 15.8791H95.0037L93.5325 19.6154H88.1293L96.3946 0.384615H101.611L109.903 19.6154H104.393L102.921 15.8791ZM101.37 11.8681L98.9625 5.71429L96.5551 11.8681H101.37Z" fill="#0A4E5C"></path><path d="M113.258 0.384615H118.555V15.3022H127.489V19.6154H113.258V0.384615Z" fill="#0A4E5C"></path><path d="M140.594 20C138.614 20 136.831 19.5696 135.244 18.7088C133.675 17.848 132.435 16.6575 131.526 15.1374C130.634 13.6172 130.189 11.9048 130.189 10C130.189 8.09524 130.634 6.38278 131.526 4.86264C132.435 3.34249 133.675 2.15202 135.244 1.29121C136.831 0.430403 138.614 0 140.594 0C142.573 0 144.347 0.430403 145.917 1.29121C147.504 2.15202 148.743 3.34249 149.635 4.86264C150.544 6.38278 150.999 8.09524 150.999 10C150.999 11.9048 150.544 13.6172 149.635 15.1374C148.743 16.6575 147.504 17.848 145.917 18.7088C144.347 19.5696 142.573 20 140.594 20ZM140.594 15.4945C141.539 15.4945 142.395 15.2656 143.162 14.8077C143.928 14.3498 144.535 13.7088 144.981 12.8846C145.426 12.0421 145.649 11.0806 145.649 10C145.649 8.91941 145.426 7.96703 144.981 7.14286C144.535 6.30037 143.928 5.65018 143.162 5.19231C142.395 4.73443 141.539 4.5055 140.594 4.5055C139.649 4.5055 138.793 4.73443 138.026 5.19231C137.259 5.65018 136.653 6.30037 136.207 7.14286C135.761 7.96703 135.538 8.91941 135.538 10C135.538 11.0806 135.761 12.0421 136.207 12.8846C136.653 13.7088 137.259 14.3498 138.026 14.8077C138.793 15.2656 139.649 15.4945 140.594 15.4945Z" fill="#0A4E5C"></path></svg>