<svg width="48" height="40" viewBox="0 0 48 40" fill="none" xmlns="http://www.w3.org/2000/svg">
<path d="M13.0855 4.06243C12.9857 4.0277 12.9076 3.94871 12.874 3.84851L11.9081 0.965877C11.8041 0.655369 11.3649 0.655369 11.2609 0.965876L10.295 3.84851C10.2614 3.94871 10.1833 4.0277 10.0835 4.06243L7.2359 5.05346C6.93038 5.15979 6.93038 5.59185 7.2359 5.69818L10.0835 6.68921C10.1833 6.72394 10.2614 6.80293 10.295 6.90313L11.2609 9.78576C11.3649 10.0963 11.8041 10.0963 11.9081 9.78576L12.874 6.90313C12.9076 6.80293 12.9857 6.72394 13.0855 6.68921L15.9331 5.69818C16.2386 5.59185 16.2386 5.15979 15.9331 5.05346L13.0855 4.06243Z" fill="#FBAD15"/>
<path fill-rule="evenodd" clip-rule="evenodd" d="M24.1989 4.20847C24.074 3.95382 23.711 3.95382 23.586 4.20847L11.8354 28.1596C11.771 28.291 11.629 28.3667 11.4841 28.3465C7.22077 27.7529 4.33559 26.345 3.94716 24.3189C3.37616 21.3407 8.37143 17.9207 15.8261 15.7618C15.9188 15.735 15.997 15.6701 16.0395 15.5835L16.3279 14.9956C16.4569 14.7327 16.2156 14.4416 15.9338 14.5212C5.92931 17.3446 -0.840851 22.6256 0.084437 27.4515C0.657403 30.44 4.06832 32.6642 9.06452 33.8074C11.0491 34.2616 13.2837 34.5451 15.6901 34.6383C18.851 34.7606 22.3081 34.5544 25.8834 33.9746C27.733 33.6747 29.5158 33.2907 31.2109 32.8364C33.3764 32.2559 35.3988 31.5605 37.2344 30.7785C44.1759 27.8217 48.4479 23.6274 47.7006 19.7299C46.8593 15.3416 39.8987 12.6012 30.7852 12.5115C30.5329 12.509 30.3668 12.7734 30.4779 13L30.7087 13.4704C30.7656 13.5863 30.8843 13.6602 31.0134 13.6619C37.5905 13.7495 42.3963 15.3435 42.9059 18.0013C43.3718 20.4318 40.1308 23.1565 34.8711 25.2499C34.7065 25.3154 34.5186 25.2428 34.4405 25.0838L24.1989 4.20847ZM28.0411 27.3239C28.2553 27.2757 28.3671 27.0399 28.2704 26.8428L24.1989 18.544C24.074 18.2893 23.711 18.2893 23.586 18.544L18.9032 28.089C18.7888 28.3222 18.9664 28.5923 19.2257 28.5769C20.9898 28.4722 22.8378 28.2697 24.7307 27.9627C25.8658 27.7787 26.9717 27.5644 28.0411 27.3239Z" fill="#FBAD15"/>
<path d="M37.6596 32.378C37.827 32.3083 38.0202 32.3801 38.1001 32.5429L41.2341 38.931C41.3454 39.1578 41.1803 39.4227 40.9277 39.4227H34.6549C34.5247 39.4227 34.4058 39.3486 34.3485 39.2317L32.1228 34.6952C32.0284 34.5028 32.1326 34.2721 32.3389 34.214C34.2244 33.683 36.0075 33.0657 37.6596 32.378Z" fill="#FBAD15"/>
<path d="M14.6862 36.6845C14.7939 36.4649 14.6424 36.2064 14.3983 36.1903C12.3226 36.0534 10.3723 35.7758 8.59619 35.3666C8.44051 35.3307 8.28024 35.406 8.20987 35.5494L6.55084 38.931C6.43957 39.1578 6.60466 39.4227 6.85727 39.4227H13.13C13.2603 39.4227 13.3791 39.3486 13.4365 39.2317L14.6862 36.6845Z" fill="#FBAD15"/>
</svg>
